<?xml version="1.0" standalone="no"?>
<!DOCTYPE svg PUBLIC "-//W3C//DTD SVG 20010904//EN"
 "http://www.w3.org/TR/2001/REC-SVG-20010904/DTD/svg10.dtd">
<svg version="1.0" xmlns="http://www.w3.org/2000/svg"
 width="1280.000000pt" height="1280.000000pt" viewBox="0 0 1280.000000 1280.000000"
 preserveAspectRatio="xMidYMid meet">
<metadata>
Created by potrace 1.14, written by Peter Selinger 2001-2017
</metadata>
<g transform="translate(0.000000,1280.000000) scale(0.100000,-0.100000)"
fill="#000000" stroke="none">
<path d="M5786 11185 c-11 -8 -16 -15 -11 -15 5 0 0 -7 -11 -15 -10 -8 4 -5
32 8 31 13 47 25 40 29 -16 11 -29 9 -50 -7z"/>
<path d="M6294 11031 c-10 -2 -29 -15 -42 -28 -15 -17 -27 -22 -35 -16 -20 16
-84 16 -90 1 -3 -9 -23 -15 -51 -17 -40 -2 -51 2 -76 28 l-30 29 -45 -21 c-24
-12 -45 -29 -45 -37 -1 -19 -30 -54 -58 -69 -12 -6 -22 -18 -22 -25 0 -18
-108 -113 -123 -108 -5 1 -6 -1 -4 -5 7 -12 -12 -55 -22 -49 -10 6 -23 -33
-15 -46 3 -4 12 -8 20 -8 8 0 14 -3 14 -7 0 -11 -70 -132 -80 -138 -15 -10
-12 -117 5 -149 8 -16 16 -44 18 -62 1 -19 7 -34 14 -34 13 0 33 -82 33 -138
0 -52 10 -82 26 -82 13 0 19 -26 14 -60 -1 -8 -13 -27 -26 -43 -34 -41 -31
-79 11 -124 19 -20 32 -40 29 -45 -3 -4 0 -8 5 -8 6 0 11 -9 11 -21 0 -12 8
-23 20 -26 11 -3 20 -11 20 -18 0 -6 9 -20 20 -30 11 -10 19 -27 19 -39 0 -31
13 -80 23 -87 17 -11 -3 -56 -35 -74 -27 -16 -54 -20 -177 -21 -81 -1 -150 3
-157 9 -7 5 -63 10 -125 10 -96 1 -123 -2 -175 -22 -35 -13 -63 -27 -63 -32 0
-5 -17 -17 -37 -28 -21 -11 -33 -20 -28 -21 6 0 1 -6 -11 -13 -12 -6 -40 -25
-64 -41 -24 -15 -49 -29 -56 -30 -8 -1 -17 -5 -20 -9 -4 -4 -15 -7 -24 -7 -9
0 -34 -9 -57 -20 -37 -17 -61 -43 -88 -95 -7 -12 -20 -19 -33 -18 -12 2 -22
-2 -22 -7 0 -6 -7 -10 -15 -10 -8 0 -15 -7 -15 -15 0 -9 -10 -15 -22 -16 -39
-2 -73 3 -78 11 -5 8 -44 18 -98 25 -28 3 -35 0 -45 -23 -23 -52 -34 -57 -134
-58 -52 0 -98 -5 -101 -10 -8 -11 -112 -11 -131 0 -7 5 -11 17 -8 27 9 34 -16
46 -91 44 -59 -2 -75 -6 -108 -31 -22 -16 -43 -35 -47 -41 -4 -7 -12 -13 -18
-13 -5 0 -15 -5 -22 -10 -44 -37 -61 -50 -66 -50 -10 0 -75 -65 -88 -88 -7
-12 -13 -33 -13 -46 0 -13 -6 -26 -12 -28 -8 -3 -13 -33 -15 -89 -3 -131 -10
-226 -17 -237 -3 -5 6 -21 20 -33 14 -13 47 -44 73 -68 25 -24 56 -50 68 -58
13 -9 21 -19 18 -23 -5 -9 72 -40 100 -40 24 0 73 -39 77 -60 2 -8 6 -17 10
-20 7 -6 12 -30 24 -109 4 -25 15 -68 26 -96 12 -31 20 -78 21 -122 1 -40 5
-73 9 -73 5 0 7 -3 7 -7 -4 -23 2 -43 11 -38 6 4 8 10 5 15 -3 5 0 12 6 16 8
4 7 9 -2 15 -9 5 -10 9 -2 9 6 0 9 9 6 20 -3 11 0 20 6 20 5 0 8 6 5 13 -3 9
5 13 25 13 17 0 33 -6 36 -13 2 -8 0 -11 -5 -8 -6 3 -7 -1 -4 -9 3 -9 11 -13
16 -10 7 4 7 0 1 -12 -6 -11 -9 -30 -7 -44 1 -14 4 -46 6 -72 1 -25 5 -46 8
-46 20 1 49 -16 43 -26 -4 -8 -3 -8 6 0 14 13 51 7 51 -7 0 -5 11 -9 24 -9 16
0 27 -7 31 -20 3 -11 12 -20 20 -20 7 0 16 -6 18 -12 4 -10 6 -10 6 0 1 7 6
10 13 6 7 -4 8 -3 4 4 -7 12 20 29 44 27 8 0 18 4 22 10 5 6 8 5 8 -3 0 -7 4
-11 9 -7 5 3 12 1 16 -4 3 -6 13 -7 22 -4 12 5 14 3 8 -8 -8 -12 -6 -12 8 0
11 9 17 10 17 2 0 -6 9 -11 19 -11 11 0 22 -4 26 -10 3 -5 12 -7 20 -3 8 3 15
0 15 -7 0 -6 4 -8 10 -5 5 3 20 -1 33 -10 13 -8 27 -12 30 -8 4 3 7 1 7 -6 0
-7 5 -9 10 -6 6 3 13 -1 16 -9 3 -9 12 -16 18 -16 7 0 21 -7 32 -16 10 -8 13
-12 5 -8 -9 5 -12 3 -7 -4 4 -7 16 -12 26 -12 10 0 22 -5 25 -11 4 -6 13 -8
20 -5 7 2 16 -2 19 -10 3 -8 12 -14 21 -14 8 0 15 -4 15 -8 0 -5 13 -8 30 -7
23 1 27 -1 19 -11 -8 -10 -5 -12 14 -9 14 3 30 -1 37 -10 7 -8 19 -15 27 -15
8 0 12 -4 9 -8 -2 -4 4 -9 15 -10 43 -4 49 -6 49 -15 0 -6 3 -7 7 -4 3 4 12
-1 19 -11 11 -14 13 -14 14 -2 0 9 3 11 8 5 10 -15 65 -38 56 -24 -5 8 -1 8
14 0 11 -6 22 -16 24 -23 3 -7 19 -11 41 -10 20 2 37 -2 37 -8 0 -5 3 -9 8 -9
28 5 52 -2 46 -13 -5 -9 -2 -9 9 1 11 9 17 10 17 2 0 -6 7 -11 16 -11 21 0 38
-20 43 -50 1 -14 8 -34 13 -45 8 -14 8 -20 -1 -23 -8 -3 -9 -8 -2 -16 10 -12
10 -41 -1 -52 -4 -3 -4 -12 -2 -19 8 -19 -26 -86 -39 -78 -6 4 -8 0 -4 -10 6
-17 -18 -31 -36 -20 -7 4 -6 -1 2 -10 12 -15 11 -17 -9 -17 -17 0 -21 -4 -15
-17 15 -37 22 -69 20 -95 -1 -16 2 -28 7 -28 5 0 6 -4 3 -10 -16 -26 -13 -49
8 -57 12 -4 26 -6 31 -4 5 1 4 -5 -4 -13 -10 -13 -10 -16 3 -16 29 0 58 -62
35 -76 -4 -3 -6 -9 -3 -14 3 -4 -2 -11 -10 -14 -12 -4 -13 -10 -6 -24 7 -13 7
-22 -1 -30 -9 -9 -9 -12 -1 -12 7 0 10 -9 7 -22 -8 -39 -11 -149 -4 -153 12
-7 10 -78 -3 -94 -9 -12 -9 -13 1 -7 6 4 12 3 12 -3 0 -5 -6 -12 -12 -14 -9
-4 -9 -6 -1 -6 14 -1 5 -41 -11 -42 -6 0 -2 -4 9 -9 13 -6 15 -9 5 -9 -13 -1
-13 -2 0 -11 11 -7 11 -10 2 -10 -7 0 -11 -4 -8 -9 3 -5 -1 -14 -9 -21 -8 -7
-15 -28 -15 -47 0 -18 -7 -44 -15 -57 -14 -21 -14 -25 0 -39 19 -19 19 -44 1
-54 -8 -4 -16 -22 -18 -39 -2 -16 -18 -49 -36 -72 -18 -23 -32 -50 -31 -59 3
-25 -11 -73 -30 -103 -9 -13 -15 -25 -13 -27 9 -12 -1 -24 -17 -20 -14 3 -19
0 -19 -12 1 -27 -9 -63 -31 -114 -12 -27 -21 -54 -21 -62 0 -7 -7 -18 -15 -25
-8 -7 -15 -25 -15 -41 0 -16 -5 -29 -11 -29 -6 0 -9 -7 -5 -15 3 -8 0 -15 -6
-15 -6 0 -8 -3 -5 -7 4 -3 1 -13 -6 -21 -9 -13 -9 -14 1 -8 6 4 12 2 12 -3 0
-6 -5 -11 -12 -11 -6 0 -9 -3 -5 -6 5 -6 -10 -56 -34 -109 -5 -11 -11 -33 -14
-50 -3 -16 -7 -35 -8 -41 -2 -7 -8 -18 -14 -25 -16 -21 -26 -146 -12 -155 8
-4 9 -3 5 4 -4 7 -3 12 2 12 12 0 12 -49 1 -56 -5 -3 -6 -10 -3 -16 4 -5 -4
-4 -17 2 -24 13 -24 13 -5 -8 13 -15 16 -26 9 -34 -5 -7 -8 -25 -7 -41 2 -15
-1 -28 -7 -28 -5 -1 -13 -2 -18 -3 -15 -2 -25 -16 -12 -16 8 0 12 -20 11 -62
-1 -89 0 -98 11 -98 5 0 8 -3 7 -7 -2 -13 14 -67 24 -80 6 -7 18 -9 31 -4 12
4 29 7 37 6 8 -1 21 3 28 8 7 6 12 6 12 0 0 -5 7 -18 16 -29 8 -10 12 -13 8
-5 -4 8 -3 12 3 8 5 -3 10 -22 11 -42 2 -46 8 -55 32 -50 18 3 19 1 8 -18 -12
-24 -12 -25 5 -45 8 -10 7 -16 -4 -24 -11 -8 -11 -9 3 -4 10 3 20 1 23 -4 3
-4 0 -10 -6 -12 -8 -3 -6 -9 5 -20 19 -20 21 -32 4 -22 -9 5 -9 2 1 -9 12 -15
11 -17 -3 -17 -10 0 -14 -5 -11 -10 3 -6 7 -28 7 -50 0 -22 4 -40 8 -40 4 0
12 -10 18 -22 l11 -23 0 23 c1 21 21 33 21 11 0 -6 5 -7 13 -2 18 11 37 12 37
2 0 -5 -7 -9 -15 -9 -9 0 -18 -7 -21 -15 -4 -8 -12 -15 -19 -15 -7 0 -15 -5
-17 -11 -2 -5 -11 -11 -20 -13 -28 -4 -29 -12 -7 -31 16 -15 22 -16 28 -6 5 7
30 14 57 16 82 4 85 5 80 14 -3 5 -16 7 -28 4 -30 -9 -50 21 -36 53 6 13 15
24 20 24 5 0 6 5 2 11 -4 8 -9 7 -15 -2 -6 -10 -9 -11 -9 -1 0 6 -5 12 -11 12
-5 0 -7 -6 -3 -12 5 -8 0 -7 -11 2 -11 9 -16 10 -11 3 7 -13 -6 -18 -17 -6
-13 13 27 32 46 21 17 -8 18 -7 13 14 l-7 23 14 -24 c8 -13 16 -20 19 -15 3 5
4 4 2 -2 -1 -6 8 -12 21 -12 17 1 22 5 18 17 -4 12 -3 13 5 2 7 -10 14 -11 31
-2 12 7 26 9 31 6 5 -3 11 -1 15 5 3 5 11 10 18 10 6 0 3 -6 -8 -13 -16 -13
-15 -14 16 -15 25 -1 30 2 19 9 -13 9 -13 10 0 6 8 -2 15 -12 15 -22 0 -10 6
-19 13 -21 7 -1 8 0 2 3 -5 2 -10 9 -10 14 0 13 40 5 49 -10 6 -9 10 -5 13 13
3 14 0 31 -6 38 -9 11 -8 11 4 0 16 -13 34 -16 26 -4 -2 4 4 8 14 9 18 2 18 1
2 -16 -9 -10 -20 -16 -23 -15 -3 2 -6 -3 -6 -11 0 -11 4 -12 13 -4 9 7 15 5
23 -8 6 -10 11 -12 11 -5 0 22 -2 27 -12 24 -5 -1 -7 2 -3 7 9 15 35 1 45 -23
8 -18 9 -19 9 -2 1 12 6 16 17 12 8 -3 12 -2 9 4 -3 6 -1 10 6 10 8 0 8 5 -2
18 -7 9 -9 14 -5 10 5 -4 16 -2 25 5 14 11 14 10 2 -5 -7 -10 -10 -18 -5 -19
5 0 17 -2 28 -4 27 -5 46 5 46 24 0 10 5 8 13 -9 11 -20 11 -27 0 -38 -7 -8
-11 -18 -8 -23 9 -13 15 -11 13 4 -2 6 3 11 10 9 8 -1 11 2 7 8 -3 5 0 10 7
10 10 0 10 2 -1 9 -17 11 -24 41 -9 41 6 0 8 -7 4 -15 -5 -15 10 -20 43 -16 8
2 10 -2 5 -11 -6 -9 -2 -9 12 2 10 8 16 10 12 6 -4 -5 1 -21 10 -35 10 -14 27
-43 37 -63 11 -21 23 -38 28 -38 4 0 5 -5 1 -12 -4 -7 -3 -8 5 -4 6 4 9 11 6
16 -3 4 1 10 9 13 9 4 16 -4 21 -21 3 -14 15 -32 27 -40 14 -10 17 -17 9 -25
-25 -25 99 -115 141 -101 12 3 18 1 16 -7 -2 -7 7 -15 20 -18 13 -3 23 -9 23
-14 -3 -37 12 -48 31 -22 4 6 8 2 8 -8 0 -9 3 -16 8 -15 8 1 35 -8 77 -27 17
-8 46 -15 65 -17 19 -1 46 -10 60 -19 14 -9 33 -15 43 -13 10 1 42 -8 70 -20
48 -21 168 -51 183 -46 4 1 11 -4 15 -12 5 -7 9 -8 9 -2 0 7 23 11 60 10 33 0
60 -4 60 -7 0 -9 21 -6 38 5 7 4 19 2 28 -4 16 -14 136 -15 162 -1 10 5 34 11
55 15 31 6 42 4 51 -10 15 -20 38 -10 29 12 -3 10 4 25 20 39 20 20 27 22 36
11 13 -16 4 -46 -18 -63 -13 -10 -9 -12 24 -9 50 4 65 -2 65 -24 0 -27 -38
-34 -81 -16 -26 11 -51 -21 -47 -63 3 -33 1 -36 -27 -41 -23 -4 -30 -10 -30
-29 0 -18 9 -26 40 -37 47 -16 65 -5 68 42 2 18 9 30 20 32 9 2 17 -1 17 -7 0
-6 9 -11 20 -11 20 0 50 -45 50 -75 0 -8 -11 -21 -25 -27 -21 -9 -32 -8 -61 5
-47 23 -54 22 -54 -11 0 -26 -3 -28 -29 -24 -25 3 -28 1 -27 -20 1 -29 46 -40
46 -11 1 15 2 15 9 3 5 -8 8 -73 7 -143 -1 -71 2 -131 6 -133 5 -3 6 -10 3
-15 -3 -5 1 -6 11 -2 14 5 15 3 6 -14 -6 -11 -9 -22 -7 -25 5 -4 5 -19 5 -128
-1 -208 5 -412 12 -416 4 -3 6 -9 3 -14 -7 -11 -8 -79 -2 -105 8 -37 17 -217
23 -485 3 -146 7 -272 10 -281 10 -37 13 -102 5 -145 -5 -27 -5 -47 1 -50 8
-5 3 -88 -7 -104 -2 -4 2 -18 10 -33 8 -15 14 -35 14 -44 1 -10 1 -25 2 -33 1
-8 -2 -23 -6 -32 -4 -11 1 -23 14 -35 24 -20 27 -43 9 -62 -10 -11 -10 -14 0
-18 15 -6 16 -86 2 -113 -9 -16 -7 -17 18 -11 26 7 27 10 32 89 3 45 1 82 -3
82 -5 0 -6 4 -3 9 3 5 -1 14 -9 21 -11 9 -12 17 -4 32 7 12 7 24 1 31 -15 18
-21 137 -24 415 -1 138 -6 252 -10 252 -4 0 -6 29 -5 65 2 36 1 67 -1 70 -3 3
-6 72 -7 153 -1 81 -3 147 -4 147 -2 0 -4 65 -5 145 -2 80 -9 186 -15 235 -14
105 -12 433 2 442 6 3 7 1 3 -5 -4 -7 -1 -12 7 -12 14 0 34 -39 36 -70 1 -8 5
-112 11 -230 5 -118 14 -249 19 -290 6 -41 10 -126 8 -188 -1 -61 1 -112 4
-112 3 0 5 -90 5 -200 -1 -110 1 -200 4 -200 3 0 6 -19 6 -42 1 -24 4 -77 8
-118 3 -41 8 -168 11 -282 2 -119 9 -216 15 -227 10 -19 6 -87 -7 -121 -20
-53 -2 -67 34 -27 27 28 37 76 24 110 -9 23 -7 31 9 47 23 23 25 39 7 46 -14
5 -17 34 -22 189 -4 125 -14 277 -27 425 -6 69 -12 226 -14 350 -1 124 -7 237
-13 252 -10 26 -8 58 4 78 3 5 43 7 91 5 l86 -4 -6 31 c-3 17 -6 36 -6 42 0 7
-3 6 -8 -2 -9 -14 -92 -19 -111 -7 -7 4 -18 2 -25 -4 -16 -13 -41 10 -33 31 2
7 0 24 -5 36 -4 13 -5 29 -1 35 10 17 10 51 -1 59 -6 4 -9 100 -9 222 0 119
-4 219 -8 222 -14 8 -10 26 4 18 9 -5 9 -4 0 6 -9 9 -9 19 -2 33 6 11 7 17 2
14 -6 -4 -10 12 -11 34 -1 22 -6 48 -11 58 -6 10 -6 23 0 32 5 7 9 28 9 45 0
27 5 34 38 47 25 10 43 12 55 6 11 -7 17 -6 17 2 0 8 4 8 15 -1 8 -7 15 -9 15
-5 0 4 7 2 16 -5 12 -11 18 -11 29 1 21 21 8 56 -26 68 -27 9 -29 8 -29 -15 0
-24 -14 -32 -25 -14 -3 6 -15 10 -26 10 -10 0 -18 3 -17 8 2 4 0 8 -4 10 -5 1
-8 -1 -7 -4 0 -4 -5 -10 -12 -15 -18 -11 -38 8 -32 29 3 13 -5 22 -29 32 -52
23 -49 53 8 86 l48 28 -33 7 c-19 4 -37 12 -41 18 -3 6 -17 13 -30 16 -47 9
-37 31 15 33 26 1 42 -6 64 -27 16 -16 33 -26 36 -23 7 7 12 8 41 11 8 0 13 5
10 9 -2 4 -1 14 4 21 9 16 30 6 30 -15 0 -21 37 -17 60 6 24 24 36 25 44 4 4
-9 11 -12 18 -7 7 4 27 9 43 10 53 3 149 24 179 39 16 7 35 14 42 14 20 0 64
22 64 32 0 11 -77 10 -100 -2 -10 -5 -57 -12 -104 -14 -48 -3 -91 -8 -96 -11
-9 -6 -116 -17 -154 -16 -22 0 -36 18 -29 38 3 7 -2 13 -11 13 -9 0 -16 -6
-16 -14 0 -17 -26 -39 -51 -43 -15 -2 -19 3 -19 27 0 22 -5 30 -18 30 -10 0
-23 -5 -29 -11 -16 -16 -71 -22 -102 -11 -18 6 -34 6 -45 0 -10 -6 -22 -6 -29
-1 -7 5 -23 8 -37 6 -14 -2 -33 -4 -43 -4 -9 0 -15 -4 -12 -10 4 -5 10 -9 15
-9 12 0 50 -32 50 -41 0 -4 -79 -7 -176 -7 -129 0 -177 3 -180 12 -3 7 -10 13
-17 13 -113 6 -199 17 -218 28 -5 4 -30 9 -55 11 -59 5 -135 31 -156 54 -9 10
-15 20 -12 22 2 3 -3 5 -11 5 -8 0 -12 -4 -9 -9 9 -15 -8 -8 -25 10 -24 25
-56 49 -47 35 4 -8 1 -13 -8 -13 -9 0 -16 5 -16 10 0 6 -7 10 -16 10 -9 0 -12
5 -8 12 4 6 3 8 -4 4 -16 -10 -81 25 -75 40 3 8 -1 14 -10 14 -8 0 -20 7 -27
15 -7 8 -18 15 -26 15 -15 0 -64 43 -64 56 0 5 -14 18 -30 29 -16 11 -30 24
-30 28 0 5 -10 18 -22 29 -13 11 -16 17 -8 13 8 -4 4 3 -9 14 -13 12 -19 21
-15 21 5 0 2 4 -6 10 -8 5 -11 12 -7 16 3 4 15 1 24 -7 16 -12 16 -12 0 8 -14
16 -16 26 -8 41 6 11 7 23 3 27 -4 5 -2 5 5 1 7 -4 9 -14 6 -24 -6 -15 -5 -16
12 -2 15 12 17 12 10 1 -6 -11 -3 -13 16 -7 13 4 30 8 37 8 6 1 12 7 12 15 0
7 4 13 10 13 5 0 7 -6 4 -14 -3 -8 0 -17 6 -21 8 -5 8 -11 1 -19 -8 -9 -7 -13
4 -13 8 0 12 4 9 8 -2 4 0 10 6 14 6 4 8 11 4 16 -3 5 -11 6 -17 2 -7 -4 -5 2
3 13 22 29 24 30 17 11 -6 -15 -3 -17 16 -13 12 3 16 3 10 0 -10 -4 -10 -9 1
-20 19 -18 32 -18 17 0 -8 10 -9 16 -1 21 5 3 10 2 10 -3 0 -6 7 -12 14 -15
10 -4 13 -1 9 9 -4 10 0 15 8 14 25 -4 39 0 39 9 0 5 -11 8 -25 5 -14 -2 -25
0 -25 6 0 6 -5 8 -11 4 -8 -4 -7 -9 2 -15 10 -6 7 -8 -9 -6 -12 0 -22 5 -22
10 0 4 -4 6 -8 3 -5 -3 -9 2 -9 10 0 10 4 11 11 4 15 -15 30 -12 17 4 -8 10
-9 16 -1 21 6 4 9 1 8 -5 -2 -7 5 -14 15 -15 9 -2 17 2 17 8 0 6 7 2 15 -9 13
-17 14 -17 15 -1 0 9 4 17 10 17 5 0 7 -6 4 -14 -3 -8 -1 -17 5 -20 6 -4 7
-14 4 -23 -6 -15 -5 -16 9 -3 14 13 14 16 -1 28 -14 12 -13 12 6 7 19 -5 21
-3 17 21 -3 15 -7 31 -10 35 -2 4 1 11 7 15 7 4 9 3 6 -3 -3 -5 0 -22 8 -37
10 -18 10 -25 2 -20 -9 5 -9 4 0 -6 17 -19 30 -3 16 19 -10 15 -9 18 5 17 9 0
16 4 15 11 -1 6 4 14 12 17 8 3 12 0 9 -7 -2 -8 4 -13 17 -14 16 -2 18 1 9 12
-9 10 -8 13 4 11 9 -1 19 -5 22 -9 14 -14 26 -7 14 8 -11 13 -10 14 2 10 9 -4
20 -16 26 -28 9 -20 10 -18 9 12 -1 21 3 35 11 37 7 1 8 0 2 -3 -19 -9 -10
-19 21 -21 19 -2 28 1 24 8 -3 6 -11 7 -17 4 -7 -4 -8 -2 -4 4 7 11 36 6 36
-7 0 -4 -5 -12 -12 -19 -9 -9 -9 -12 1 -12 7 0 10 -4 7 -8 -3 -5 1 -9 9 -9 8
0 12 4 9 8 -2 4 0 11 6 14 8 5 8 11 1 19 -8 9 -6 18 4 32 15 19 15 19 8 -1 -6
-20 -6 -20 15 -1 12 11 22 15 22 10 1 -5 7 2 15 16 8 14 14 20 15 15 0 -19
-31 -55 -42 -49 -7 5 -8 2 -3 -6 5 -9 4 -11 -3 -6 -7 4 -12 3 -12 -2 0 -6 7
-13 16 -16 8 -3 12 -11 8 -17 -4 -8 -3 -9 5 -5 9 6 9 11 1 21 -9 10 -7 16 9
24 27 15 31 14 25 -6 -4 -13 -3 -15 4 -5 5 7 15 14 23 15 8 2 21 7 29 12 25
16 42 15 36 -2 -5 -13 -4 -14 9 -3 18 15 16 19 -16 25 -13 3 -26 0 -30 -6 -3
-6 -6 2 -6 17 0 16 2 23 4 16 3 -6 9 -10 14 -6 5 3 9 0 9 -6 0 -6 5 -8 10 -5
8 5 7 11 -1 21 -8 10 -8 14 0 14 6 0 11 -4 11 -10 0 -5 5 -10 11 -10 5 0 7 5
4 10 -9 14 8 12 24 -2 11 -11 12 -8 7 12 -6 21 -5 22 4 7 12 -19 4 -41 -11
-32 -5 4 -17 1 -26 -4 -14 -8 -15 -11 -3 -12 8 0 25 -2 38 -3 12 -2 27 3 33
11 6 7 15 10 20 7 5 -3 17 -7 27 -9 14 -2 18 2 17 18 -1 14 -8 21 -20 20 -11
-1 -14 2 -8 8 6 6 20 5 38 -3 22 -10 29 -10 32 -1 3 7 11 9 19 6 8 -3 14 0 14
7 0 6 -4 8 -10 5 -5 -3 -10 0 -10 7 0 8 -5 6 -11 -4 -14 -24 -26 -23 -39 5
-10 20 -10 20 3 5 15 -19 32 -25 22 -8 -6 10 10 15 30 10 6 -1 15 -3 22 -3 7
0 10 -4 7 -8 -9 -15 16 -20 38 -7 13 7 27 11 32 10 5 -2 1 10 -9 25 -16 24
-16 26 -2 14 10 -8 17 -9 17 -3 0 6 -8 16 -17 21 -10 6 -13 10 -8 11 21 0 38
-18 32 -35 -4 -9 -3 -14 3 -10 6 3 16 3 22 -1 25 -16 45 -11 40 9 -3 10 -8 15
-11 10 -8 -12 -31 -10 -30 2 0 6 6 9 14 7 9 -2 12 6 11 22 -2 14 1 23 6 20 5
-3 7 -12 4 -20 -3 -8 1 -17 9 -20 8 -4 12 -11 8 -18 -4 -7 -2 -7 8 1 12 10 18
10 29 0 12 -10 12 -9 1 5 -7 10 -10 18 -6 18 4 0 0 10 -8 23 -12 19 -13 24 -2
24 8 0 12 -4 10 -8 -3 -4 2 -9 10 -13 8 -3 17 -1 20 4 3 4 -1 11 -7 13 -8 4
-7 6 4 6 9 1 20 -4 23 -10 5 -7 13 -5 26 6 17 16 18 16 13 -9 -2 -15 0 -26 6
-26 6 0 8 -5 5 -10 -3 -5 -2 -10 4 -10 9 0 9 -7 1 -45 -1 -5 -1 -12 0 -15 1
-3 3 -30 3 -60 1 -30 4 -59 7 -65 5 -10 5 -59 -3 -295 -5 -127 -4 -137 18
-176 18 -32 21 -45 12 -54 -9 -10 -9 -11 1 -6 7 4 12 1 12 -8 0 -10 6 -13 17
-9 12 5 14 3 8 -7 -5 -8 -4 -11 3 -6 8 5 8 15 1 32 -8 21 -7 25 5 21 10 -4 14
0 11 14 -2 11 0 17 4 15 4 -3 7 14 7 37 -1 31 -6 43 -19 45 -9 2 -17 -1 -17
-7 0 -6 -4 -11 -9 -11 -10 0 -7 75 8 170 9 64 8 235 -3 295 -3 17 -7 74 -10
128 -5 90 -4 97 11 85 15 -12 15 -11 4 11 -10 17 -10 22 -1 16 9 -5 10 -1 5
16 -4 17 -3 20 3 10 8 -11 11 -11 16 0 3 8 3 4 1 -8 -3 -12 -1 -24 5 -28 8 -5
8 -11 0 -20 -7 -8 -8 -20 -4 -26 4 -7 7 -51 6 -98 -1 -47 5 -108 12 -136 12
-41 19 -99 28 -212 1 -7 4 -13 7 -13 11 0 19 -154 8 -157 -4 -2 -13 -8 -21
-15 -11 -11 -11 -20 2 -58 8 -25 20 -51 26 -59 8 -12 8 -13 -2 -7 -11 7 -11 4
0 -13 16 -27 20 -26 35 4 7 17 8 23 0 18 -6 -4 -8 0 -4 9 3 9 1 20 -5 26 -6 6
-7 16 -2 24 5 7 9 20 9 28 0 8 6 14 13 12 6 -1 12 2 12 8 0 5 -4 10 -9 10 -5
0 -8 21 -8 47 0 62 -12 142 -25 170 -6 13 -12 53 -13 90 -2 38 -10 88 -19 112
-12 31 -16 73 -15 154 1 134 4 144 32 120 14 -13 21 -15 24 -5 3 6 10 12 17
12 7 0 21 9 31 20 17 19 17 21 -1 42 -15 19 -16 20 -1 9 13 -11 17 -11 17 -1
0 29 16 -6 19 -42 1 -5 6 -8 12 -8 8 0 8 5 -1 15 -11 13 -9 15 11 13 15 -2 23
2 21 10 -1 6 3 12 8 12 6 0 3 12 -6 27 -14 25 -14 26 0 9 15 -18 21 -15 17 8
-1 5 5 3 15 -4 14 -13 19 -11 35 9 11 13 23 21 26 17 4 -4 3 -10 -2 -14 -14
-10 -19 -46 -6 -37 6 3 11 13 11 21 0 8 5 12 10 9 6 -4 7 -12 4 -18 -4 -7 -3
-8 1 -4 11 9 16 39 6 33 -4 -3 -7 4 -8 14 -2 18 -1 18 16 2 10 -9 16 -23 13
-29 -2 -7 2 -13 9 -13 7 0 9 3 6 7 -4 3 2 13 13 20 17 12 24 13 38 2 13 -11
13 -9 -2 9 -18 21 -20 21 -33 4 -8 -9 -12 -11 -8 -5 4 8 1 11 -8 7 -8 -3 -18
0 -22 7 -5 7 -3 10 6 7 20 -7 51 11 43 24 -5 7 -2 8 5 4 7 -5 10 -11 7 -14 -3
-3 3 -12 15 -20 18 -12 22 -12 33 4 13 16 14 16 24 -2 10 -17 11 -17 12 -1 0
9 -5 17 -11 17 -5 0 -7 5 -3 12 4 6 -2 17 -12 25 -14 11 -15 14 -4 13 32 -5
51 0 44 11 -4 7 3 6 17 -2 13 -7 25 -10 26 -8 1 2 5 0 10 -5 5 -5 2 -6 -6 -1
-10 5 -12 4 -7 -4 4 -6 4 -11 -1 -10 -20 3 -31 -2 -35 -19 -4 -13 1 -18 18
-18 12 0 20 4 18 8 -3 5 -10 6 -15 3 -5 -4 -9 -2 -9 3 0 16 13 22 26 11 9 -8
18 -7 31 1 15 9 14 10 -7 4 -24 -6 -24 -5 -8 12 13 13 21 15 29 7 9 -9 17 -7
32 8 12 11 29 17 41 14 12 -3 15 -2 8 1 -10 5 -10 10 4 25 9 10 20 16 24 14 4
-3 13 2 20 9 9 12 6 18 -17 31 -15 9 -19 13 -8 9 11 -3 25 -7 32 -7 7 0 10 -4
7 -9 -3 -4 0 -8 7 -8 8 0 6 -6 -4 -18 -14 -15 -15 -19 -2 -19 8 0 12 4 10 8
-7 10 23 32 34 25 5 -4 14 2 20 11 7 13 10 14 11 4 0 -11 5 -10 20 4 11 10 20
25 20 34 0 10 -3 12 -8 5 -4 -6 -15 -10 -25 -8 -11 1 -15 -2 -10 -9 4 -7 0 -7
-9 1 -14 12 -19 10 -31 -14 -13 -25 -14 -26 -19 -6 -3 12 -3 21 1 20 18 -2 22
3 12 16 -8 10 -9 16 -1 21 6 4 10 3 9 -2 -4 -22 2 -25 16 -7 11 14 14 15 9 2
-4 -12 -1 -16 13 -13 10 2 22 4 26 4 5 1 5 7 2 14 -4 6 7 -3 23 -21 22 -25 32
-30 38 -20 4 7 4 10 -1 6 -5 -5 -17 6 -27 22 -25 42 -23 46 8 13 20 -22 23
-24 15 -6 -8 15 -8 24 -1 28 6 4 8 10 5 15 -3 5 0 12 6 16 7 4 9 3 5 -4 -10
-16 13 -25 29 -12 8 7 15 8 15 3 0 -5 7 -18 15 -29 13 -16 14 -16 9 -1 -3 9
-1 17 4 17 6 0 13 -8 15 -18 3 -9 4 2 2 25 -2 25 0 43 6 43 6 0 7 -4 4 -10
-10 -16 11 -12 25 5 7 8 18 15 26 15 7 0 18 8 23 18 6 10 11 12 11 4 0 -8 5
-10 13 -6 6 4 4 -2 -7 -14 -10 -12 -23 -19 -27 -16 -5 3 -17 0 -26 -5 -14 -8
-15 -10 -3 -11 13 0 13 -2 0 -9 -8 -6 -18 -7 -22 -5 -4 3 -8 1 -8 -5 0 -5 14
-9 31 -9 16 1 27 4 22 7 -10 7 -15 31 -7 31 3 0 12 -7 20 -15 9 -8 23 -15 32
-14 15 0 15 1 -1 8 -10 4 -19 11 -19 15 0 13 24 26 35 19 5 -3 4 -9 -3 -13 -7
-4 0 -7 16 -7 16 0 23 2 16 4 -9 4 -10 8 -2 18 8 10 8 15 -1 21 -7 4 -9 3 -6
-3 3 -5 0 -10 -8 -10 -18 0 -20 17 -2 18 27 3 33 5 55 17 12 7 20 17 17 22 -3
6 1 7 9 4 9 -3 16 -1 16 5 0 6 5 11 11 11 8 0 8 -5 -1 -15 -10 -12 -9 -16 6
-22 11 -4 25 -14 32 -22 10 -14 11 -13 5 4 -6 18 -5 19 13 5 17 -14 18 -14 6
2 -10 12 -11 22 -3 35 6 11 11 13 11 5 0 -7 5 -10 10 -7 6 4 8 11 5 16 -3 5 1
6 10 3 11 -4 14 -2 9 9 -3 8 -1 18 5 22 6 3 9 0 6 -7 -3 -7 5 -24 16 -38 11
-14 17 -19 13 -11 -4 8 -2 12 5 10 7 -3 12 -8 11 -13 -1 -5 4 -12 11 -17 10
-6 10 -11 -2 -25 -8 -10 -9 -15 -4 -13 22 12 40 -27 42 -90 1 -47 6 -67 17
-73 14 -8 16 -36 16 -203 -1 -167 -3 -196 -17 -203 -13 -8 -16 -34 -19 -147
-2 -105 -6 -140 -17 -146 -9 -5 -12 -22 -10 -49 3 -41 -26 -128 -54 -161 -7
-8 -13 -25 -13 -36 0 -11 -6 -26 -14 -32 -8 -7 -17 -25 -21 -40 -3 -14 -19
-39 -35 -55 -17 -15 -30 -34 -30 -42 0 -8 -7 -17 -15 -20 -8 -4 -15 -10 -15
-15 0 -4 -18 -26 -40 -48 -22 -22 -40 -37 -40 -33 0 3 -14 -13 -31 -36 -17
-23 -35 -40 -40 -36 -5 3 -9 0 -9 -6 0 -6 -3 -9 -7 -7 -10 6 -34 -19 -26 -26
3 -3 -11 -9 -31 -12 -26 -5 -36 -12 -36 -26 0 -11 -6 -19 -14 -19 -8 0 -16 -6
-19 -13 -3 -9 -28 -14 -79 -15 -126 -4 -181 -10 -188 -22 -5 -9 -9 -9 -14 -1
-4 6 -14 11 -23 11 -12 0 -14 -7 -10 -36 8 -45 6 -44 56 -49 30 -3 43 0 47 10
4 8 17 15 30 15 13 0 24 6 24 13 0 11 11 12 44 7 29 -4 49 -2 61 6 10 8 22 11
27 8 5 -3 15 0 23 6 8 7 26 9 42 6 18 -4 36 -1 48 8 18 14 18 15 3 16 -10 0
-18 7 -18 16 0 13 7 15 35 11 27 -4 35 -2 35 9 0 8 7 17 15 20 8 4 15 17 15
29 0 18 6 24 28 27 21 2 26 8 24 24 -3 24 29 57 35 37 6 -17 23 -17 23 0 0 8
12 24 26 38 17 16 24 31 21 46 -4 19 -1 22 19 19 13 -3 24 -2 25 2 3 35 12 59
25 72 13 13 16 13 25 0 9 -12 10 -11 4 5 -8 24 -8 24 -6 53 0 12 7 22 16 22 9
0 20 11 25 25 5 13 20 27 34 31 22 5 23 9 15 33 -7 20 -6 35 6 57 8 16 15 41
15 55 0 15 9 37 19 50 13 17 19 40 18 77 0 29 2 55 5 58 3 3 1 19 -4 37 -7 23
-6 41 3 62 7 17 13 60 13 96 1 37 7 73 13 80 6 8 13 33 16 56 5 31 3 43 -9 47
-14 5 -14 42 0 65 4 5 2 21 -4 35 -7 18 -5 33 5 53 13 24 12 29 -3 46 -18 21
-23 68 -10 105 4 13 4 22 -2 22 -6 0 -10 -5 -10 -12 0 -23 -11 0 -26 58 -9 32
-16 65 -17 72 0 6 -4 12 -8 12 -6 0 -6 33 0 58 1 1 9 -2 19 -7 13 -7 22 -7 30
1 8 8 16 7 29 -3 16 -13 17 -12 4 4 -17 21 -8 22 27 1 25 -15 26 -15 7 0 -20
17 -20 17 3 22 12 4 22 10 22 16 0 5 -8 4 -19 -1 -10 -6 -22 -7 -26 -3 -5 4
-5 0 0 -8 6 -12 5 -13 -6 -2 -7 6 -17 12 -22 12 -4 0 -5 -6 -1 -12 4 -7 4 -10
-1 -6 -4 4 -13 0 -20 -9 -9 -13 -14 -13 -20 -3 -5 9 -4 11 3 6 11 -6 16 5 13
26 0 3 11 5 25 3 18 -2 28 4 34 19 7 17 9 18 9 4 1 -19 20 -25 22 -8 1 6 2 14
3 19 2 16 26 37 26 23 0 -7 -4 -12 -8 -12 -4 0 -8 -9 -9 -20 -1 -11 2 -18 7
-15 4 3 7 -2 6 -11 -1 -8 -9 -20 -17 -24 -10 -7 -8 -9 8 -7 12 0 20 4 17 8 -2
4 0 10 6 14 7 4 7 12 0 24 -10 19 -4 31 14 31 6 0 4 -5 -4 -10 -12 -8 -11 -10
8 -10 12 0 25 -6 28 -14 4 -9 14 -5 37 17 28 26 30 30 15 41 -17 13 -19 39 -3
53 4 4 5 2 1 -5 -5 -9 2 -11 26 -8 43 6 65 -6 44 -23 -10 -8 -16 -9 -21 -1 -3
5 -1 10 6 10 7 0 9 3 6 6 -4 4 -13 1 -22 -6 -10 -8 -15 -9 -15 -2 0 6 -7 9
-15 6 -19 -8 -8 -26 13 -22 10 1 22 -1 29 -5 6 -4 18 -1 26 7 8 8 17 13 20 10
3 -3 15 9 27 25 12 17 17 31 11 31 -6 0 -11 -6 -11 -12 0 -9 -4 -8 -10 2 -16
24 -12 32 12 24 20 -6 21 -5 9 10 -9 10 -10 16 -2 16 6 0 11 -5 11 -11 0 -5 5
-7 10 -4 8 5 8 11 0 20 -7 9 -6 16 7 26 16 13 17 12 4 -3 -11 -15 -11 -19 2
-24 25 -9 40 5 25 24 -7 9 2 5 21 -8 30 -21 34 -21 28 -6 -7 17 -6 17 9 5 16
-13 16 -12 1 17 -9 17 -13 34 -10 38 4 3 1 6 -5 6 -10 0 -28 38 -24 52 1 4 -5
5 -13 2 -9 -4 -15 0 -15 9 0 9 -5 19 -12 23 -7 5 -8 3 -3 -6 6 -9 4 -11 -4 -6
-7 5 -10 10 -7 13 9 9 -14 44 -25 38 -5 -4 -9 -1 -9 5 0 13 -21 36 -35 37 -5
1 -12 10 -16 20 -4 10 -8 12 -8 5 -1 -10 -4 -10 -15 0 -8 7 -12 16 -10 20 2 3
-4 5 -13 4 -10 -2 -24 5 -31 15 -7 10 -19 16 -27 13 -16 -7 -48 20 -37 30 3 4
-1 4 -11 0 -13 -5 -16 -2 -11 10 5 12 2 15 -10 10 -11 -4 -16 -1 -16 12 0 16
-2 17 -10 4 -6 -10 -10 -11 -10 -2 0 6 -9 12 -21 12 -12 0 -17 4 -14 11 4 6 1
10 -6 8 -26 -3 -40 1 -35 10 3 4 -5 8 -17 7 -12 -1 -28 4 -35 11 -8 7 -18 11
-23 8 -5 -4 -9 -1 -9 4 0 6 -3 11 -7 10 -16 -2 -53 14 -53 22 0 5 -5 9 -11 9
-5 0 -7 -5 -3 -12 4 -7 3 -8 -4 -4 -7 4 -12 15 -12 24 0 15 -2 15 -10 2 -6
-10 -10 -11 -10 -2 0 6 -7 12 -16 12 -8 0 -12 4 -9 10 3 6 -1 7 -9 4 -9 -3
-16 -1 -16 6 0 6 -4 9 -9 5 -5 -3 -12 -1 -16 5 -3 5 -15 10 -26 10 -11 0 -22
7 -25 15 -4 8 -10 15 -16 15 -5 0 -6 -6 -3 -12 4 -7 0 -5 -8 5 -8 9 -19 17
-26 17 -6 0 -11 5 -11 11 0 5 -4 8 -9 4 -5 -3 -12 -1 -16 5 -4 6 -11 8 -16 5
-5 -4 -9 -2 -9 2 0 5 -9 10 -20 11 -44 4 -50 6 -50 14 0 5 -4 6 -10 3 -5 -3
-10 -1 -10 6 0 7 -3 9 -6 6 -4 -3 -14 -2 -24 3 -9 5 -34 10 -54 12 -20 1 -36
5 -36 8 0 4 -6 7 -12 8 -38 3 -88 29 -88 46 0 5 8 15 18 23 9 8 11 11 3 7 -9
-5 -12 -3 -7 5 4 6 13 8 19 4 7 -4 17 -8 22 -10 6 -1 20 -4 33 -7 15 -3 20 -1
16 6 -5 7 2 9 19 6 15 -3 24 -1 21 4 -3 4 5 12 18 17 13 6 17 10 9 10 -10 1
-11 4 -2 15 9 11 9 15 -1 19 -10 4 -10 6 -1 6 22 2 -7 49 -38 62 -16 6 -29 16
-29 21 0 5 6 6 13 2 8 -6 8 -3 -1 9 -8 9 -10 22 -6 28 4 7 3 9 -4 5 -6 -3 -13
-2 -17 4 -3 5 -1 10 4 10 17 0 8 23 -17 43 -12 10 -20 23 -17 28 4 5 -2 6 -11
2 -12 -4 -15 -3 -10 5 5 8 -1 12 -15 12 -12 0 -19 3 -16 7 4 4 -7 13 -24 20
-22 9 -29 18 -25 28 3 9 2 13 -4 10 -12 -7 -12 -6 -15 60 -1 28 3 56 8 62 5 7
7 19 4 28 -4 8 1 19 11 24 12 8 13 10 3 11 -9 0 -6 7 9 20 23 20 34 24 58 21
6 -1 12 4 12 10 0 7 7 4 15 -7 15 -18 15 -18 8 0 -5 15 -3 17 8 10 17 -11 99
-12 92 -1 -2 4 2 10 11 13 8 3 17 12 20 20 4 10 2 13 -7 8 -9 -6 -9 -5 0 8 7
8 10 18 6 21 -3 4 -2 7 3 7 5 0 8 19 6 41 -3 28 -7 37 -13 28 -6 -10 -9 -3
-10 21 -1 19 -1 38 0 43 0 4 -4 7 -10 7 -8 0 -7 6 2 17 8 9 9 14 3 10 -16 -10
-21 9 -18 75 1 32 -2 61 -7 64 -6 4 -5 14 4 27 7 12 21 43 31 70 10 26 23 47
29 47 8 0 7 3 -2 9 -9 6 -10 11 -2 15 8 5 8 13 0 28 -9 16 -8 19 2 13 8 -6 10
-4 3 6 -4 8 -9 41 -11 74 -3 89 -30 231 -50 271 -6 10 -13 36 -17 56 -4 20
-11 38 -16 40 -6 2 -12 14 -15 27 -2 14 -10 28 -17 32 -7 4 -9 11 -5 15 4 4
-4 22 -18 40 -14 18 -25 38 -25 44 0 6 -5 8 -12 4 -7 -5 -9 -2 -5 9 3 9 -4 25
-17 40 -12 13 -20 30 -18 37 3 7 0 10 -7 6 -6 -4 -11 0 -11 9 0 9 -4 14 -9 10
-6 -3 -9 4 -8 15 1 20 27 38 27 19 0 -6 5 -7 13 -2 16 11 157 10 157 0 0 -5 6
-7 13 -4 6 2 18 -3 25 -12 8 -9 11 -10 7 -3 -4 7 0 12 10 12 9 0 14 -4 10 -9
-3 -6 4 -8 16 -6 12 2 30 0 40 -6 15 -8 17 -6 12 7 -5 14 -3 15 18 3 13 -7 41
-12 61 -11 21 0 40 -3 43 -8 4 -7 13 -6 25 0 13 7 21 7 25 0 3 -5 17 -10 30
-10 13 0 26 -6 28 -12 4 -10 6 -10 6 0 1 6 8 12 17 12 8 0 13 -4 10 -8 -2 -4
6 -8 19 -8 13 0 22 3 20 6 -2 3 5 6 15 6 10 0 17 -3 15 -6 -2 -3 16 -6 41 -7
32 -1 42 2 37 10 -4 7 0 6 10 -2 9 -7 38 -15 65 -17 63 -5 85 -9 100 -18 7 -4
12 -2 12 5 0 7 3 9 7 6 3 -4 12 1 19 11 12 15 15 15 24 2 9 -13 10 -13 10 0 0
13 1 13 10 0 7 -11 10 -5 10 24 0 29 4 37 14 33 8 -3 17 -3 20 1 9 8 26 10
136 16 106 6 131 12 210 49 30 15 62 27 70 29 25 5 30 21 14 45 -8 13 -12 23
-9 23 3 0 -2 17 -10 38 -19 43 -27 142 -14 158 10 12 12 45 6 84 -3 14 -5 30
-6 36 0 6 -22 34 -48 62 -27 28 -66 72 -88 97 -22 25 -43 45 -48 45 -4 0 -41
23 -82 51 -41 27 -87 52 -102 55 -15 2 -34 7 -42 10 -8 2 -18 0 -22 -7 -5 -8
-11 -8 -25 1 -18 11 -18 11 1 6 l20 -6 -20 15 c-11 8 -24 18 -30 22 -5 4 -19
9 -30 11 -11 1 -45 6 -75 11 -59 8 -170 55 -170 71 0 6 -8 10 -18 10 -33 0
-132 76 -132 102 -1 7 -25 30 -55 51 -51 35 -67 39 -110 26 -28 -8 -87 14 -97
36 -10 23 -60 50 -85 46 -7 -1 -13 3 -13 9 0 5 -3 9 -7 8 -5 0 -15 2 -23 5 -8
3 -46 16 -85 28 -53 17 -79 31 -106 60 -20 22 -38 39 -41 39 -3 0 -23 8 -44
17 -22 9 -43 17 -49 19 -37 8 -128 57 -150 82 -14 16 -54 42 -87 57 -51 23
-77 28 -167 31 -295 9 -321 13 -346 53 -10 15 -11 21 -14 47 0 7 -8 15 -17 18
-8 3 -12 2 -9 -3 3 -5 1 -12 -4 -15 -5 -3 -14 7 -19 23 -10 27 -8 30 16 39 15
5 37 6 49 1 13 -5 25 -4 28 2 4 5 23 -4 44 -20 21 -17 41 -27 45 -23 4 4 32 8
61 8 53 2 165 43 165 61 0 5 16 26 35 46 l35 37 -21 29 c-17 23 -20 37 -15 64
4 20 12 38 19 40 8 3 4 13 -13 32 -24 26 -28 27 -105 22 -50 -4 -105 -15 -145
-30 -36 -14 -76 -24 -90 -22 -14 1 -31 3 -38 4 -15 1 -42 60 -38 82 7 36 19
75 27 84 8 11 9 16 9 40 0 9 11 20 24 25 22 8 60 50 52 57 -2 2 -12 5 -23 8
-34 6 -97 41 -126 71 -41 41 -66 110 -73 204 -2 19 -6 59 -9 88 -3 32 -2 52 5
52 5 0 10 7 10 15 0 9 -9 15 -22 15 -19 0 -20 -2 -8 -10 9 -6 10 -10 3 -10
-16 0 -36 38 -29 55 3 8 1 17 -4 20 -6 4 -10 1 -10 -6 0 -7 -11 -2 -25 11 -13
12 -36 24 -50 27 -14 2 -36 5 -48 7 -34 6 -64 26 -79 56 -7 14 -25 37 -40 51
-16 14 -28 31 -28 37 0 6 -25 18 -55 26 -30 9 -58 22 -62 30 -13 22 -94 58
-135 60 -21 0 -38 3 -38 6 0 6 -38 7 -66 1z m-1404 -2716 c18 -1 81 -34 115
-60 22 -17 54 -37 70 -45 32 -15 85 -20 85 -8 0 4 6 5 14 2 7 -3 30 2 50 10
34 14 38 14 55 -3 35 -35 13 -302 -29 -356 -13 -17 -9 -97 7 -145 8 -25 16
-49 17 -55 3 -18 21 -44 31 -45 6 -1 9 -11 8 -23 -1 -20 3 -22 38 -19 30 3 39
1 39 -12 0 -8 -9 -20 -20 -26 -23 -12 -64 -4 -55 11 4 5 0 10 -7 11 -59 6 -89
21 -117 57 -23 29 -44 41 -102 60 -40 13 -94 33 -119 44 -25 12 -49 21 -55 21
-5 1 -13 6 -17 11 -5 6 -8 4 -8 -4 0 -10 -10 -5 -30 14 -21 20 -30 38 -30 61
0 18 4 35 8 38 5 3 8 31 6 63 -3 62 -5 65 -99 138 -54 42 -75 66 -75 86 0 9
-12 25 -27 34 -51 33 -75 63 -68 84 8 27 32 34 53 13 10 -10 36 -18 62 -20 37
-2 50 2 74 24 31 30 95 56 111 46 5 -4 12 -7 15 -7z m4220 -3095 c0 -5 -5 -10
-11 -10 -5 0 -7 5 -4 10 3 6 8 10 11 10 2 0 4 -4 4 -10z m61 -21 c13 -26 2
-44 -17 -28 -10 8 -12 15 -5 22 7 7 5 15 -7 24 -16 12 -16 13 1 7 10 -4 22
-15 28 -25z m-136 -39 c-8 -13 14 -42 26 -34 20 12 6 -12 -16 -29 -24 -17 -24
-17 -40 13 -9 18 -21 28 -27 24 -7 -4 -8 -3 -4 4 5 9 14 7 32 -4 23 -16 35
-32 12 -18 -7 4 -8 3 -4 -4 4 -6 13 -9 22 -5 13 5 13 8 -2 24 -14 15 -13 39 2
39 3 0 2 -5 -1 -10z m-248 -115 c0 -8 -4 -12 -9 -9 -5 3 -6 10 -3 15 9 13 12
11 12 -6z m-202 -33 c-3 -3 -11 0 -18 7 -9 10 -8 11 6 5 10 -3 15 -9 12 -12z
m-58 -7 c0 -8 -4 -12 -9 -9 -5 3 -6 10 -3 15 9 13 12 11 12 -6z m123 5 c0 -5
-5 -10 -11 -10 -5 0 -7 5 -4 10 3 6 8 10 11 10 2 0 4 -4 4 -10z m-29 -47 c-6
-11 -11 -13 -11 -5 0 7 -5 10 -12 6 -7 -4 -8 -3 -4 5 4 6 12 8 18 5 6 -4 8 2
4 17 -6 20 -5 21 4 7 8 -13 8 -23 1 -35z m-101 2 c-14 -17 -30 -20 -30 -4 0 5
4 8 9 4 5 -3 12 -1 16 5 3 5 9 10 12 10 3 0 0 -7 -7 -15z m-40 -10 c0 -2 -6
-5 -13 -8 -8 -3 -14 1 -14 8 0 7 6 11 14 8 7 -3 13 -6 13 -8z m-152 -91 c2 -1
-5 -5 -15 -8 -9 -4 -14 -4 -10 0 4 4 1 14 -6 23 -11 14 -10 15 8 1 11 -8 21
-15 23 -16z m-158 -84 c0 -5 -5 -10 -11 -10 -5 0 -7 5 -4 10 3 6 8 10 11 10 2
0 4 -4 4 -10z m-36 -15 c-4 -8 -10 -12 -15 -9 -11 6 -2 24 11 24 5 0 7 -7 4
-15z m-144 1 c0 -2 -7 -7 -16 -10 -8 -3 -12 -2 -9 4 6 10 25 14 25 6z m30 -26
c0 5 7 10 15 10 8 0 15 -5 15 -12 0 -6 -3 -8 -7 -5 -3 4 -17 -3 -30 -15 -13
-12 -23 -18 -23 -15 0 4 -9 -2 -20 -13 -24 -24 -42 -26 -34 -5 5 11 2 13 -10
9 -9 -3 -16 -11 -16 -17 0 -6 -2 -8 -5 -5 -10 9 7 38 18 31 6 -4 8 0 4 11 -4
9 -3 15 2 11 5 -3 12 1 15 7 4 9 5 8 5 -2 -2 -30 1 -41 11 -35 6 4 7 11 4 17
-4 7 -2 8 4 4 11 -6 17 6 13 27 -1 4 8 3 19 -3 13 -7 20 -7 20 0z m-133 -46
c-3 -3 -12 -4 -19 -1 -8 3 -5 6 6 6 11 1 17 -2 13 -5z m-120 -29 c0 -8 -4 -15
-9 -15 -10 0 -11 14 -1 23 9 10 10 9 10 -8z m-83 -23 c3 -5 -1 -9 -9 -9 -8 0
-12 4 -9 9 3 4 7 8 9 8 2 0 6 -4 9 -8z m120 -1 c3 -4 -3 -16 -14 -26 -11 -10
-20 -16 -21 -14 0 2 -2 12 -4 22 -2 9 1 15 6 11 5 -3 9 0 9 5 0 13 17 14 24 2z
m-157 -26 c0 -8 -4 -12 -9 -9 -5 3 -6 10 -3 15 9 13 12 11 12 -6z m-2677 -29
c0 -3 -4 -8 -10 -11 -5 -3 -10 -1 -10 4 0 6 5 11 10 11 6 0 10 -2 10 -4z
m2557 -11 c0 -8 -4 -12 -9 -9 -5 3 -6 10 -3 15 9 13 12 11 12 -6z m73 5 c8 -5
11 -10 5 -10 -5 0 -17 5 -25 10 -8 5 -10 10 -5 10 6 0 17 -5 25 -10z m-56 -46
c3 -8 2 -12 -4 -9 -6 3 -10 1 -10 -4 0 -6 5 -11 12 -11 6 0 8 -3 5 -6 -8 -8
-37 14 -37 28 0 5 5 6 10 3 6 -3 10 -1 10 4 0 16 7 13 14 -5z m-69 -55 c-10
-15 -65 -37 -71 -28 -3 5 1 9 8 9 8 0 14 9 15 20 1 11 -2 18 -7 15 -5 -3 -11
-1 -15 4 -3 6 6 8 21 5 19 -3 24 -1 18 8 -4 7 2 5 14 -6 12 -10 19 -22 17 -27z
m-70 2 c3 -6 -3 -9 -14 -8 -11 0 -17 5 -15 9 7 11 22 10 29 -1z m-195 -76 c-7
-9 -15 -13 -19 -10 -3 3 1 10 9 15 21 14 24 12 10 -5z m-84 -62 c-10 -11 -19
-7 -22 10 -2 15 0 16 12 6 8 -6 12 -14 10 -16z m-275 -20 c13 -16 12 -17 -3
-4 -10 7 -18 15 -18 17 0 8 8 3 21 -13z m87 -18 c-3 -3 -9 2 -12 12 -6 14 -5
15 5 6 7 -7 10 -15 7 -18z m56 -17 c-3 -5 -12 -4 -20 3 -12 10 -13 9 -8 -5 3
-9 2 -16 -3 -16 -13 0 -12 33 1 42 13 9 38 -11 30 -24z m-216 -23 c-3 -3 -9 2
-12 12 -6 14 -5 15 5 6 7 -7 10 -15 7 -18z m39 3 c-1 -17 3 -22 15 -20 12 2
16 -2 12 -13 -8 -19 -9 -19 -33 6 -15 17 -17 24 -8 35 16 18 17 17 14 -8z
m-137 -3 c-7 -8 -17 -15 -23 -15 -6 0 -2 7 9 15 25 19 30 19 14 0z m120 -24
c0 -5 -7 -14 -15 -21 -16 -14 -18 -10 -9 14 6 17 24 22 24 7z m-210 -15 c0 -3
-4 -8 -10 -11 -5 -3 -10 -1 -10 4 0 6 5 11 10 11 6 0 10 -2 10 -4z m57 -10
c-3 -7 -1 -18 5 -24 7 -7 5 -10 -8 -7 -11 2 -23 4 -28 4 -5 1 -1 10 10 20 23
24 28 25 21 7z m-1491 -15 c-4 -5 -1 -11 6 -13 8 -3 6 -6 -4 -10 -11 -5 -15
-2 -13 10 5 23 4 22 11 22 3 0 3 -4 0 -9z m1310 -3 c3 -4 -1 -5 -10 -4 -8 1
-18 5 -22 8 -3 4 1 5 10 4 8 -1 18 -5 22 -8z m64 -52 c0 -3 -4 -8 -10 -11 -5
-3 -10 -1 -10 4 0 6 5 11 10 11 6 0 10 -2 10 -4z m-282 -51 c-3 -3 -9 2 -12
12 -6 14 -5 15 5 6 7 -7 10 -15 7 -18z m-158 -9 c0 -2 -7 -7 -16 -10 -8 -3
-12 -2 -9 4 6 10 25 14 25 6z m-75 -44 c-3 -3 -11 0 -18 7 -9 10 -8 11 6 5 10
-3 15 -9 12 -12z m-574 -9 c13 -16 12 -17 -3 -4 -10 7 -18 15 -18 17 0 8 8 3
21 -13z m302 2 c4 -8 3 -16 -1 -19 -4 -3 -9 4 -9 15 -2 23 3 25 10 4z m98 -2
c12 -16 12 -17 -2 -6 -9 7 -20 9 -24 5 -5 -4 -5 -1 -1 6 9 16 11 15 27 -5z
m94 -3 c-3 -5 -12 -10 -18 -10 -7 0 -6 4 3 10 19 12 23 12 15 0z m-590 -18
c-3 -3 -11 0 -18 7 -9 10 -8 11 6 5 10 -3 15 -9 12 -12z m149 10 c2 -4 -4 -8
-14 -8 -10 0 -16 4 -14 8 3 4 9 8 14 8 5 0 11 -4 14 -8z m171 -16 c0 -13 -3
-22 -7 -19 -5 2 -8 -1 -8 -8 0 -8 -4 -8 -15 1 -8 7 -14 20 -14 29 1 13 2 13 6
-1 6 -24 19 -23 26 2 7 27 12 25 12 -4z m-444 -19 c-10 -9 -11 -8 -5 6 3 10 9
15 12 12 3 -3 0 -11 -7 -18z m159 13 c0 -5 -5 -10 -11 -10 -5 0 -7 5 -4 10 3
6 8 10 11 10 2 0 4 -4 4 -10z m480 5 c0 -7 -30 -13 -34 -7 -3 4 4 9 15 9 10 1
19 0 19 -2z m67 -1 c-3 -3 -12 -4 -19 -1 -8 3 -5 6 6 6 11 1 17 -2 13 -5z
m-387 -24 c0 -10 -38 -1 -45 10 -2 4 7 5 20 2 14 -2 25 -8 25 -12z m577 -265
c0 -8 -4 -15 -9 -15 -4 0 -8 7 -8 15 0 8 4 15 8 15 5 0 9 -7 9 -15z m1423
-250 c0 -14 -24 -15 -37 -1 -9 9 18 27 29 20 4 -3 8 -11 8 -19z m-200 -125 c0
-5 -4 -10 -10 -10 -5 0 -10 5 -10 10 0 6 5 10 10 10 6 0 10 -4 10 -10z m62
-185 c8 -3 12 -19 11 -38 -1 -17 -2 -53 -2 -79 -1 -45 -16 -66 -23 -33 -2 10
-6 8 -14 -8 -8 -18 -8 -24 2 -24 7 0 11 4 8 9 -3 4 2 5 11 1 12 -4 13 -8 5
-13 -9 -6 -7 -11 6 -19 11 -6 13 -11 6 -11 -7 0 -10 -5 -6 -12 4 -7 3 -8 -5
-4 -6 4 -9 11 -6 16 5 9 -13 25 -29 25 -14 0 -16 35 -3 35 9 0 9 2 1 8 -6 4
-14 21 -17 37 -3 17 -7 39 -10 51 -6 24 0 36 28 52 24 14 21 13 37 7z m-68
-306 c-3 -5 -10 -7 -15 -3 -5 3 -7 10 -3 15 3 5 10 7 15 3 5 -3 7 -10 3 -15z"/>
<path d="M4966 8177 c3 -10 9 -15 12 -12 3 3 0 11 -7 18 -10 9 -11 8 -5 -6z"/>
<path d="M4825 8080 c-3 -5 -1 -10 4 -10 6 0 11 5 11 10 0 6 -2 10 -4 10 -3 0
-8 -4 -11 -10z"/>
<path d="M4880 7821 c0 -6 4 -13 10 -16 6 -3 7 1 4 9 -7 18 -14 21 -14 7z"/>
<path d="M7990 4719 c0 -5 5 -7 10 -4 6 3 10 8 10 11 0 2 -4 4 -10 4 -5 0 -10
-5 -10 -11z"/>
<path d="M7779 4623 c-13 -16 -12 -17 4 -4 16 13 21 21 13 21 -2 0 -10 -8 -17
-17z"/>
<path d="M7441 4486 c-10 -11 -9 -14 1 -12 14 2 23 15 15 22 -2 2 -10 -2 -16
-10z"/>
<path d="M7324 10151 c4 -5 -7 -21 -24 -34 -29 -25 -41 -45 -18 -31 10 6 45 9
153 14 12 0 -4 12 -40 30 -63 31 -80 36 -71 21z"/>
<path d="M5497 9733 c-15 -14 -6 -29 19 -31 21 -2 24 1 15 11 -6 8 -8 17 -4
20 3 4 0 7 -9 7 -8 0 -18 -3 -21 -7z"/>
<path d="M7731 9674 c0 -11 3 -14 6 -6 3 7 2 16 -1 19 -3 4 -6 -2 -5 -13z"/>
<path d="M7570 9639 c0 -5 5 -7 10 -4 6 3 10 8 10 11 0 2 -4 4 -10 4 -5 0 -10
-5 -10 -11z"/>
<path d="M5663 9606 c-22 -23 -22 -24 -3 -29 11 -3 22 -1 25 4 3 4 13 5 22 2
13 -5 13 -3 -2 20 -9 15 -18 27 -19 27 0 0 -11 -11 -23 -24z"/>
<path d="M4606 9261 c-4 -6 -11 -9 -16 -6 -5 3 -11 1 -14 -3 -3 -5 -17 -8 -31
-7 -35 4 -31 -2 11 -20 28 -11 39 -12 55 -2 21 13 22 16 10 36 -6 9 -11 10
-15 2z"/>
<path d="M3140 8001 c0 -10 19 -25 25 -20 1 2 -3 10 -11 17 -8 7 -14 8 -14 3z"/>
<path d="M9430 7810 c-13 -8 -12 -10 3 -10 9 0 17 5 17 10 0 12 -1 12 -20 0z"/>
<path d="M9343 7786 c-18 -6 -33 -14 -33 -18 0 -4 12 -3 28 3 15 6 35 12 46
15 10 2 21 6 23 8 8 7 -27 3 -64 -8z"/>
<path d="M8905 7700 c6 -9 2 -10 -15 -5 -13 4 -20 3 -17 -2 4 -5 0 -10 -8 -10
-8 0 -12 4 -9 9 3 4 0 8 -5 8 -6 0 -11 -7 -11 -15 0 -14 4 -17 33 -19 6 -1 14
-7 17 -14 3 -7 10 0 17 18 8 21 8 32 1 37 -7 4 -8 1 -3 -7z"/>
<path d="M8300 7602 c0 -11 27 -42 37 -42 3 0 -2 10 -13 23 -10 12 -20 24 -21
26 -2 2 -3 -1 -3 -7z"/>
<path d="M8319 7548 c7 -9 9 -23 5 -30 -6 -10 -4 -11 7 0 11 10 10 15 -6 30
-17 15 -18 15 -6 0z"/>
<path d="M4146 7538 c3 -5 10 -6 15 -3 13 9 11 12 -6 12 -8 0 -12 -4 -9 -9z"/>
<path d="M8380 7495 c0 -7 30 -13 34 -7 3 4 -4 9 -15 9 -10 1 -19 0 -19 -2z"/>
<path d="M8771 7462 c-7 -13 -6 -19 2 -19 7 0 13 9 13 19 0 10 -1 18 -3 18 -1
0 -7 -8 -12 -18z"/>
<path d="M8746 7429 c3 -5 0 -9 -6 -9 -6 0 -9 -4 -5 -10 3 -5 -3 -18 -15 -30
-11 -11 -17 -20 -14 -20 4 0 1 -7 -6 -15 -7 -8 -9 -15 -5 -15 4 0 1 -7 -6 -17
-8 -9 -13 -24 -11 -35 2 -10 -1 -18 -6 -18 -10 0 -10 -45 0 -55 4 -4 5 1 4 11
-2 10 6 34 18 53 14 25 16 33 6 27 -12 -6 -12 -5 0 6 8 7 16 20 18 28 2 8 7
17 12 20 5 3 12 17 15 33 4 15 12 24 18 20 5 -3 7 -1 3 5 -3 5 -1 12 6 14 7 3
2 7 -10 10 -12 4 -20 2 -16 -3z"/>
<path d="M4511 7409 c-1 -9 5 -19 12 -22 8 -3 14 1 14 9 0 7 -4 11 -8 8 -4 -2
-10 2 -12 8 -4 8 -6 7 -6 -3z"/>
<path d="M4875 7260 c-3 -6 1 -7 9 -4 18 7 21 14 7 14 -6 0 -13 -4 -16 -10z"/>
<path d="M8533 7202 c-1 -15 -3 -42 -6 -59 -2 -19 0 -30 5 -27 5 3 7 12 4 20
-3 7 -1 16 5 19 5 4 7 11 4 16 -4 5 -1 9 5 9 6 0 8 5 5 10 -4 6 -2 16 4 23 7
9 5 13 -8 14 -12 1 -18 -6 -18 -25z"/>
<path d="M4760 7137 c0 -9 -5 -17 -11 -17 -5 0 -7 5 -3 12 4 7 3 8 -5 4 -9 -6
-9 -11 1 -23 7 -9 12 -18 11 -20 -10 -12 -1 -22 11 -11 7 7 12 24 9 38 -5 30
-13 40 -13 17z"/>
<path d="M8365 7131 c3 -5 -5 -17 -17 -25 -12 -9 -17 -16 -10 -16 8 0 10 -5 6
-12 -5 -7 -3 -8 5 -4 7 5 10 10 7 13 -3 4 3 14 14 23 18 15 18 19 5 24 -9 3
-13 2 -10 -3z"/>
<path d="M8583 7103 c4 -3 2 -12 -4 -20 -6 -7 -8 -13 -4 -13 4 0 2 -7 -6 -16
-10 -13 -10 -17 1 -24 7 -5 18 -3 25 3 9 8 9 14 2 18 -5 4 -2 9 9 12 16 4 17
5 2 6 -10 0 -18 6 -18 12 0 5 6 7 13 3 8 -5 8 -2 -2 9 -7 9 -16 17 -19 17 -3
0 -2 -3 1 -7z"/>
<path d="M8314 7039 c0 -11 4 -19 8 -19 4 0 8 7 8 16 0 9 5 12 13 8 6 -4 8 -3
4 1 -14 16 -33 13 -33 -6z"/>
<path d="M8430 7045 c-7 -9 -8 -15 -2 -15 5 0 12 7 16 15 3 8 4 15 2 15 -2 0
-9 -7 -16 -15z"/>
<path d="M5019 7038 c-6 -22 -5 -39 3 -45 6 -3 8 -1 4 5 -3 5 0 13 6 15 10 4
10 6 0 6 -7 1 -10 6 -7 11 3 6 4 10 1 10 -3 0 -6 -1 -7 -2z"/>
<path d="M8575 7000 c3 -5 8 -10 11 -10 2 0 4 5 4 10 0 6 -5 10 -11 10 -5 0
-7 -4 -4 -10z"/>
<path d="M8318 6983 c7 -3 16 -2 19 1 4 3 -2 6 -13 5 -11 0 -14 -3 -6 -6z"/>
<path d="M8406 6843 c2 -6 -1 -13 -6 -15 -5 -2 -3 -11 5 -21 11 -16 13 -16 19
-2 3 9 2 13 -4 10 -14 -9 -12 8 3 24 8 9 8 12 0 7 -6 -3 -13 -3 -16 1 -2 5 -2
3 -1 -4z"/>
<path d="M5187 6839 c7 -7 15 -10 18 -7 3 3 -2 9 -12 12 -14 6 -15 5 -6 -5z"/>
<path d="M5193 6805 c0 -8 4 -12 9 -9 5 3 6 10 3 15 -9 13 -12 11 -12 -6z"/>
<path d="M8407 6767 c-3 -8 0 -14 7 -14 7 0 13 6 13 14 0 7 -4 13 -8 13 -4 0
-9 -6 -12 -13z"/>
<path d="M8411 6724 c-10 -12 -16 -13 -21 -4 -5 8 -9 7 -14 -5 -7 -20 0 -35
17 -34 9 0 9 2 0 6 -7 2 -13 8 -13 12 0 12 34 9 42 -3 4 -6 8 1 8 17 0 31 0
31 -19 11z"/>
<path d="M4539 6668 c-8 -26 -8 -58 1 -53 6 3 7 11 4 17 -5 8 -1 9 12 5 18 -7
18 -6 1 7 -14 10 -15 15 -5 19 10 4 10 6 1 6 -7 1 -13 0 -14 -1z"/>
<path d="M8360 6655 c-7 -8 -9 -15 -4 -15 5 0 2 -5 -6 -11 -13 -9 -13 -10 0
-6 8 2 15 8 15 13 0 5 4 15 8 22 11 17 2 15 -13 -3z"/>
<path d="M8410 6656 c0 -2 8 -10 18 -17 15 -13 16 -12 3 4 -13 16 -21 21 -21
13z"/>
<path d="M4797 6575 c-12 -8 -14 -15 -7 -20 5 -3 8 -10 5 -15 -3 -4 2 -11 10
-14 12 -4 14 -2 6 11 -6 12 -5 20 6 29 9 6 12 13 7 17 -5 3 -17 -1 -27 -8z"/>
<path d="M8256 6563 c-4 -8 -13 -13 -21 -9 -8 3 -15 1 -15 -5 0 -6 -5 -7 -12
-3 -7 4 -8 3 -4 -5 4 -6 12 -9 17 -6 5 4 9 -1 9 -9 0 -25 17 -19 39 13 17 23
18 30 7 34 -8 3 -17 -1 -20 -10z"/>
<path d="M8123 6558 c3 -9 0 -22 -8 -28 -7 -6 -10 -20 -7 -32 3 -13 1 -19 -5
-15 -5 3 -10 0 -10 -8 0 -8 3 -15 7 -15 3 0 6 -10 7 -21 1 -12 6 -26 10 -30 5
-5 8 19 8 54 -1 34 2 67 6 72 4 6 3 17 -3 25 -8 13 -9 12 -5 -2z"/>
<path d="M5286 6545 c4 -8 11 -15 16 -15 6 0 5 6 -2 15 -7 8 -14 15 -16 15 -2
0 -1 -7 2 -15z"/>
<path d="M9927 6524 c-3 -3 -3 -13 0 -24 4 -15 12 -17 46 -13 23 2 44 6 46 8
2 3 12 0 22 -6 16 -8 19 -6 19 9 0 15 -7 19 -32 20 -18 0 -35 1 -38 2 -16 5
-59 8 -63 4z"/>
<path d="M8306 6466 c5 -13 4 -17 -3 -13 -12 8 -12 -19 0 -28 4 -3 5 -2 2 2
-3 3 0 12 7 20 8 10 8 17 -1 26 -10 9 -11 8 -5 -7z"/>
<path d="M8379 6448 c-5 -18 -6 -38 -1 -34 7 8 12 36 6 36 -2 0 -4 -1 -5 -2z"/>
<path d="M5246 6378 c3 -5 10 -6 15 -3 13 9 11 12 -6 12 -8 0 -12 -4 -9 -9z"/>
<path d="M8616 6368 c3 -13 6 -27 7 -33 2 -5 6 -16 10 -22 6 -9 3 -11 -9 -6
-13 5 -15 3 -9 -7 4 -7 9 -22 9 -34 1 -11 7 -20 14 -18 7 1 12 -3 12 -9 0 -7
8 -18 18 -26 9 -8 11 -11 3 -7 -10 5 -12 3 -7 -5 6 -9 11 -9 22 0 9 7 14 8 12
3 -2 -5 1 -9 7 -9 12 0 7 29 -6 33 -5 2 -9 11 -9 21 0 9 -5 22 -12 29 -6 6
-13 17 -15 24 -1 7 -6 27 -9 43 -7 28 -20 44 -36 45 -4 0 -5 -10 -2 -22z"/>
<path d="M8413 6157 c-3 -6 -1 -7 4 -4 6 4 14 0 17 -9 4 -9 2 -13 -5 -8 -8 4
-9 -1 -3 -17 4 -13 7 -30 7 -36 0 -7 2 -11 5 -8 3 2 12 0 22 -5 12 -6 17 -5
17 5 0 8 -4 12 -8 9 -11 -7 -18 8 -21 48 -2 33 -21 47 -35 25z"/>
<path d="M8785 6140 c-3 -5 -3 -10 1 -10 4 0 -1 -10 -12 -21 -19 -22 -19 -22
2 -11 12 6 24 9 26 6 3 -3 8 2 11 11 4 8 2 15 -4 15 -6 0 -7 5 -4 10 3 6 2 10
-4 10 -5 0 -13 -4 -16 -10z"/>
<path d="M4699 6113 c0 -5 -2 -16 -4 -26 -3 -18 -3 -18 16 -2 10 10 16 22 13
26 -6 11 -24 12 -25 2z"/>
<path d="M4965 6101 c-3 -5 -2 -12 3 -15 5 -3 9 1 9 9 0 17 -3 19 -12 6z"/>
<path d="M8527 6104 c-3 -3 -3 -12 0 -20 4 -12 -4 -17 -27 -16 -3 0 -12 -7
-20 -16 -13 -14 -12 -15 5 -9 11 5 22 3 27 -5 6 -10 8 -10 8 1 0 11 4 10 13
-4 12 -16 14 -13 12 24 -2 42 -7 56 -18 45z"/>
<path d="M8979 6108 c-9 -31 12 -70 26 -48 3 6 1 10 -5 10 -6 0 -8 5 -5 10 4
6 11 8 16 5 5 -3 6 1 3 9 -5 13 -32 23 -35 14z"/>
<path d="M4957 6057 c-3 -8 1 -14 8 -14 7 0 11 6 8 14 -3 7 -6 13 -8 13 -2 0
-5 -6 -8 -13z"/>
<path d="M4953 6008 c-2 -18 0 -20 7 -8 12 18 13 30 2 30 -4 0 -9 -10 -9 -22z"/>
<path d="M8294 5978 c-4 -7 -4 -10 1 -6 4 4 15 2 24 -5 14 -11 14 -10 2 6 -16
20 -18 21 -27 5z"/>
<path d="M5275 5961 c-3 -5 -2 -12 3 -15 5 -3 9 1 9 9 0 17 -3 19 -12 6z"/>
<path d="M8886 5837 c3 -10 9 -15 12 -12 3 3 0 11 -7 18 -10 9 -11 8 -5 -6z"/>
<path d="M4957 5433 c-10 -9 -9 -23 1 -23 5 0 9 7 9 15 0 17 -1 18 -10 8z"/>
<path d="M4947 5393 c-11 -11 -8 -21 9 -27 13 -5 14 -4 6 7 -7 8 -9 17 -5 20
3 4 4 7 1 7 -2 0 -8 -3 -11 -7z"/>
<path d="M4916 5313 c-6 -14 -5 -15 5 -6 7 7 10 15 7 18 -3 3 -9 -2 -12 -12z"/>
<path d="M4972 5313 c1 -4 -6 -24 -17 -43 -19 -34 -29 -67 -18 -56 4 3 13 0
22 -7 14 -11 14 -10 2 6 -12 15 -9 21 10 19 3 -1 6 4 7 11 1 7 3 24 6 39 2 16
0 31 -5 34 -5 3 -8 2 -7 -3z m-2 -57 c0 -2 -8 -10 -17 -17 -16 -13 -17 -12 -4
4 13 16 21 21 21 13z"/>
<path d="M9246 5241 c-18 -10 -30 -26 -31 -40 -2 -22 -1 -22 11 -6 7 9 17 14
23 11 5 -4 13 -2 16 4 4 6 3 10 -2 9 -4 -1 -15 -1 -23 1 -11 1 -9 4 5 9 30 12
58 -6 53 -34 -4 -19 -1 -23 15 -19 11 2 24 7 29 12 11 11 -14 60 -29 55 -6 -2
-14 1 -18 6 -8 14 -14 13 -49 -8z m49 -1 c3 -6 -1 -7 -9 -4 -18 7 -21 14 -7
14 6 0 13 -4 16 -10z"/>
<path d="M9240 5180 c-8 -5 -10 -10 -5 -10 6 0 17 5 25 10 8 5 11 10 5 10 -5
0 -17 -5 -25 -10z"/>
<path d="M9349 5171 c-1 -3 -3 -15 -4 -26 -2 -11 -4 -24 -5 -30 -1 -5 -1 -14
0 -20 7 -31 4 -115 -5 -115 -5 0 -3 -5 5 -10 13 -8 13 -13 2 -31 -10 -15 -11
-24 -3 -32 19 -19 12 -31 -8 -13 -13 12 -21 14 -26 6 -3 -6 -1 -9 6 -8 7 2 14
-4 14 -12 2 -24 -7 -33 -16 -19 -7 11 -9 10 -9 -3 0 -10 -6 -18 -12 -18 -9 0
-9 -3 -3 -8 14 -9 12 -98 -1 -95 -6 1 -11 -5 -11 -12 0 -11 4 -12 14 -4 10 9
13 8 13 -4 0 -9 -10 -23 -21 -31 -16 -11 -20 -22 -17 -40 3 -14 1 -26 -5 -26
-20 0 3 -13 27 -15 28 -3 42 25 41 85 -1 20 6 41 15 48 10 9 11 11 1 6 -11 -5
-13 -3 -8 10 4 10 7 24 7 32 0 10 5 12 13 8 7 -5 6 0 -3 11 -14 17 -13 18 5
12 17 -6 17 -4 -2 9 -27 19 -30 36 -5 28 14 -5 15 -4 2 5 -13 9 -8 15 11 13 3
-1 6 6 6 14 0 8 -4 14 -9 14 -5 0 -7 4 -3 10 3 5 12 7 20 3 16 -5 18 12 17
127 -1 88 -11 137 -27 137 -8 0 -16 -3 -16 -6z"/>
<path d="M9090 5126 c0 -2 7 -7 16 -10 8 -3 12 -2 9 4 -6 10 -25 14 -25 6z"/>
<path d="M9056 5081 c-3 -4 4 -7 14 -6 27 2 33 10 10 12 -11 1 -22 -2 -24 -6z"/>
<path d="M8992 5075 c4 -4 3 -16 -3 -26 -5 -11 -7 -19 -5 -19 3 0 10 9 16 19
7 15 7 22 -2 27 -7 4 -10 4 -6 -1z"/>
<path d="M8804 5000 c0 -13 4 -16 10 -10 7 7 7 13 0 20 -6 6 -10 3 -10 -10z"/>
<path d="M8833 4985 c0 -8 4 -12 9 -9 5 3 6 10 3 15 -9 13 -12 11 -12 -6z"/>
<path d="M8870 4990 c-9 -6 -10 -10 -3 -10 6 0 15 5 18 10 8 12 4 12 -15 0z"/>
<path d="M8674 4975 c-12 -8 -23 -13 -25 -12 -2 1 1 -3 8 -9 7 -6 11 -13 8
-16 -3 -2 2 -5 10 -5 18 0 20 14 3 20 -7 2 -10 8 -6 12 4 4 16 2 25 -6 16 -12
17 -12 6 2 -7 9 -10 19 -6 22 11 12 -2 7 -23 -8z"/>
<path d="M8549 4953 c-1 -5 -1 -12 0 -16 1 -4 -6 -7 -15 -5 -11 2 -18 -5 -20
-22 -3 -21 -2 -22 6 -8 6 9 17 15 25 12 9 -4 18 1 21 11 6 16 9 15 26 -6 11
-13 16 -17 12 -9 -18 37 -52 63 -55 43z"/>
<path d="M8715 4941 c-3 -5 -2 -12 3 -15 5 -3 9 1 9 9 0 17 -3 19 -12 6z"/>
<path d="M8526 4883 c-6 -14 -5 -15 5 -6 7 7 10 15 7 18 -3 3 -9 -2 -12 -12z"/>
<path d="M9273 4885 c0 -8 4 -15 9 -15 4 0 8 4 8 9 0 6 -4 12 -8 15 -5 3 -9
-1 -9 -9z"/>
<path d="M8235 4840 c-6 -10 -5 -11 14 -14 15 -2 26 -16 13 -16 -7 0 -12 -4
-12 -8 0 -5 7 -9 14 -9 8 0 14 5 13 11 -1 6 4 10 12 8 11 -2 12 0 3 11 -7 8
-9 17 -5 20 3 4 1 7 -5 7 -7 0 -12 -5 -12 -11 0 -8 -4 -8 -14 0 -10 8 -16 9
-21 1z"/>
<path d="M9550 4816 c7 -7 13 -7 20 0 6 6 3 10 -10 10 -13 0 -16 -4 -10 -10z"/>
<path d="M9256 4802 c-3 -5 1 -9 9 -9 8 0 12 4 9 9 -3 4 -7 8 -9 8 -2 0 -6 -4
-9 -8z"/>
<path d="M8190 4759 c0 -5 5 -7 10 -4 6 3 10 8 10 11 0 2 -4 4 -10 4 -5 0 -10
-5 -10 -11z"/>
<path d="M8721 4753 c0 -4 4 -17 9 -28 8 -19 9 -19 9 2 1 12 -3 25 -9 28 -5 3
-10 3 -9 -2z"/>
<path d="M8189 4723 c-13 -16 -12 -17 4 -4 9 7 17 15 17 17 0 8 -8 3 -21 -13z"/>
<path d="M8030 4700 c0 -5 5 -10 10 -10 6 0 10 5 10 10 0 6 -4 10 -10 10 -5 0
-10 -4 -10 -10z"/>
<path d="M7838 4662 c-10 -4 -14 -12 -10 -18 5 -6 13 -4 25 8 18 19 14 21 -15
10z"/>
<path d="M7980 4666 c0 -2 7 -7 16 -10 8 -3 12 -2 9 4 -6 10 -25 14 -25 6z"/>
<path d="M7850 4586 c0 -2 7 -7 16 -10 8 -3 12 -2 9 4 -6 10 -25 14 -25 6z"/>
<path d="M7796 4567 c3 -10 9 -15 12 -12 3 3 0 11 -7 18 -10 9 -11 8 -5 -6z"/>
<path d="M7730 4562 c0 -4 10 -9 22 -9 18 -2 20 0 8 7 -18 12 -30 13 -30 2z"/>
<path d="M7615 4550 c-4 -6 -14 -9 -22 -8 -10 2 -17 -5 -18 -19 -1 -13 2 -23
7 -23 4 0 8 7 8 15 0 8 5 15 11 15 5 0 8 -4 4 -9 -3 -5 -1 -12 4 -15 5 -4 8 2
6 11 -1 10 2 24 8 31 5 6 7 12 4 12 -3 0 -9 -5 -12 -10z"/>
<path d="M8757 4535 c-7 -17 1 -45 13 -45 8 0 7 46 -2 55 -3 3 -8 -1 -11 -10z"/>
<path d="M9212 4533 c-5 -10 -10 -49 -11 -88 -1 -38 -7 -74 -12 -79 -5 -6 -9
-15 -9 -20 0 -6 5 -4 10 4 5 8 10 10 10 3 0 -14 36 -5 51 13 9 11 8 14 -2 14
-9 0 -14 11 -14 30 0 20 5 30 15 30 12 0 12 2 1 9 -7 5 -9 11 -4 14 8 5 9 28
4 75 -2 18 -29 15 -39 -5z m15 -65 c-2 -13 -4 -5 -4 17 -1 22 1 32 4 23 2 -10
2 -28 0 -40z"/>
<path d="M7634 4502 c4 -3 14 -7 22 -8 9 -1 13 0 10 4 -4 3 -14 7 -22 8 -9 1
-13 0 -10 -4z"/>
<path d="M7383 4427 c0 -8 6 -14 14 -14 9 0 10 4 2 14 -6 7 -12 13 -14 13 -1
0 -2 -6 -2 -13z"/>
<path d="M8720 4334 c0 -31 3 -45 10 -38 15 15 17 76 3 81 -9 3 -13 -9 -13
-43z"/>
<path d="M7165 4360 c-4 -6 -11 -7 -17 -4 -6 4 -6 -2 1 -15 13 -23 23 -29 15
-8 -3 8 4 13 16 14 11 1 18 -2 16 -6 -3 -4 1 -8 9 -8 19 0 19 2 -1 21 -18 18
-30 20 -39 6z"/>
<path d="M9137 4317 c3 -5 11 -6 17 -4 7 3 13 -1 13 -8 0 -7 -8 -10 -17 -8
-14 4 -17 0 -13 -21 3 -14 10 -26 15 -26 5 0 6 5 2 12 -4 7 -3 8 4 4 6 -4 8
-14 5 -23 -4 -11 -2 -14 8 -11 8 3 14 12 14 22 0 9 7 21 15 26 12 8 12 10 -3
16 -12 4 -15 10 -8 18 8 9 2 12 -23 12 -19 0 -32 -4 -29 -9z"/>
<path d="M7115 4300 c-3 -5 -1 -10 4 -10 6 0 11 5 11 10 0 6 -2 10 -4 10 -3 0
-8 -4 -11 -10z"/>
<path d="M4833 4293 c-17 -6 -17 -20 0 -20 8 0 14 6 14 14 0 7 -1 13 -1 12 -1
0 -7 -3 -13 -6z"/>
<path d="M7030 4280 c0 -5 5 -10 10 -10 6 0 10 5 10 10 0 6 -4 10 -10 10 -5 0
-10 -4 -10 -10z"/>
<path d="M7000 4260 c-9 -6 -10 -10 -3 -10 6 0 15 5 18 10 8 12 4 12 -15 0z"/>
<path d="M9115 4260 c3 -5 8 -10 11 -10 2 0 4 5 4 10 0 6 -5 10 -11 10 -5 0
-7 -4 -4 -10z"/>
<path d="M8693 4240 c-12 -28 -6 -57 9 -42 5 5 8 22 6 38 l-4 29 -11 -25z"/>
<path d="M4849 4237 c6 -8 7 -18 3 -22 -4 -5 -1 -5 6 -1 10 6 10 11 1 22 -6 8
-14 14 -16 14 -3 0 0 -6 6 -13z"/>
<path d="M6930 4240 c0 -4 7 -7 15 -6 23 3 26 12 5 13 -11 1 -20 -2 -20 -7z"/>
<path d="M9134 4211 c1 -31 16 -56 16 -28 0 8 6 17 13 20 9 3 9 7 -2 20 -20
25 -29 21 -27 -12z"/>
<path d="M9113 4205 c0 -8 4 -12 9 -9 5 3 6 10 3 15 -9 13 -12 11 -12 -6z"/>
<path d="M6750 4176 c4 -4 16 -4 26 2 16 9 14 10 -8 9 -15 -1 -23 -6 -18 -11z"/>
<path d="M8660 4171 c0 -11 -7 -26 -15 -34 -13 -14 -35 -48 -70 -110 -9 -16
-14 -31 -11 -34 8 -8 52 49 48 63 -1 6 4 14 11 17 21 8 70 85 63 102 -8 21
-26 19 -26 -4z"/>
<path d="M6669 4163 c-13 -16 -12 -17 4 -4 9 7 17 15 17 17 0 8 -8 3 -21 -13z"/>
<path d="M9103 4169 c-6 -6 -9 -17 -7 -24 3 -7 -5 -15 -18 -19 -21 -6 -21 -7
-5 -17 9 -5 17 -20 16 -32 0 -22 0 -22 -10 2 -8 19 -12 21 -24 11 -18 -15 -20
-46 -4 -56 6 -3 15 -1 19 6 4 7 13 9 19 6 6 -4 11 -4 10 1 -3 20 2 33 13 31 6
-2 14 5 16 15 2 10 0 17 -5 16 -4 -1 -15 -1 -23 0 -12 1 -11 5 4 16 10 8 24
12 30 9 6 -3 3 1 -6 9 -20 16 -25 32 -6 21 7 -4 8 -3 4 4 -9 15 -9 15 -23 1z"/>
<path d="M4920 4162 c0 -2 5 -13 11 -24 10 -18 9 -20 -7 -14 -15 6 -16 5 -7
-5 10 -10 15 -10 27 0 12 10 14 9 9 -8 -3 -12 -1 -21 5 -21 6 0 13 -8 16 -17
3 -14 4 -13 3 3 -1 11 6 32 16 47 10 15 14 27 10 26 -4 -1 -15 -1 -23 0 -13 1
-13 2 0 11 11 8 5 10 -22 8 -21 -1 -38 -4 -38 -6z m60 -42 c-6 -11 -12 -20
-14 -20 -2 0 -2 9 1 20 3 11 9 20 15 20 5 0 4 -9 -2 -20z"/>
<path d="M9246 4162 c-3 -5 1 -9 9 -9 8 0 12 4 9 9 -3 4 -7 8 -9 8 -2 0 -6 -4
-9 -8z"/>
<path d="M6447 4143 c-3 -5 -2 -16 2 -25 6 -17 7 -16 18 2 11 16 10 18 -4 13
-11 -4 -14 -3 -9 5 4 7 5 12 2 12 -3 0 -7 -3 -9 -7z"/>
<path d="M6372 4129 c2 -10 -6 -14 -27 -14 -17 0 -30 -5 -30 -12 0 -7 4 -13 9
-12 5 0 13 -5 17 -13 7 -10 9 -9 9 5 0 10 5 15 10 12 6 -4 7 -11 4 -17 -4 -7
-2 -8 4 -4 6 4 8 14 5 24 -6 15 -5 16 12 2 11 -9 16 -10 11 -2 -4 7 -1 12 8
12 9 0 16 5 16 11 0 5 -5 7 -10 4 -6 -4 -18 -1 -26 6 -12 10 -15 10 -12 -2z"/>
<path d="M8689 4098 c-1 -1 -2 -16 -3 -31 0 -15 -5 -31 -11 -35 -12 -9 -55
-69 -55 -77 0 -4 -13 -18 -30 -32 -16 -13 -30 -31 -30 -39 0 -8 -7 -14 -15
-14 -8 0 -15 -4 -15 -9 0 -5 -9 -12 -20 -16 -10 -3 -29 -22 -40 -41 -12 -19
-25 -32 -29 -30 -20 13 -141 -68 -141 -94 0 -15 48 -4 77 17 14 10 34 23 43
28 10 6 35 28 56 48 21 20 46 37 56 37 10 0 20 10 24 25 4 17 13 25 28 25 13
0 23 6 23 13 0 13 69 115 90 132 17 14 21 87 6 92 -7 3 -13 3 -14 1z"/>
<path d="M6440 4060 c-9 -6 -10 -10 -3 -10 6 0 15 5 18 10 8 12 4 12 -15 0z"/>
<path d="M6310 4039 c0 -5 5 -7 10 -4 6 3 10 8 10 11 0 2 -4 4 -10 4 -5 0 -10
-5 -10 -11z"/>
<path d="M6020 4015 c-8 -9 -4 -11 15 -7 14 2 25 8 25 11 0 12 -29 9 -40 -4z"/>
<path d="M6253 4015 c0 -8 4 -12 9 -9 5 3 6 10 3 15 -9 13 -12 11 -12 -6z"/>
<path d="M5950 4010 c0 -11 60 -34 67 -26 3 3 -1 6 -11 6 -9 0 -14 4 -11 10 4
6 -1 7 -11 3 -10 -4 -15 -2 -11 4 3 5 0 10 -8 10 -8 0 -15 -4 -15 -7z"/>
<path d="M6110 4006 c0 -8 4 -17 9 -20 5 -4 7 3 4 14 -6 23 -13 26 -13 6z"/>
<path d="M5760 3980 c-9 -6 -10 -10 -3 -10 6 0 15 5 18 10 8 12 4 12 -15 0z"/>
<path d="M9296 3978 c3 -5 10 -6 15 -3 13 9 11 12 -6 12 -8 0 -12 -4 -9 -9z"/>
<path d="M5390 3966 c0 -8 -5 -18 -12 -22 -7 -5 -9 -2 -5 9 4 10 2 14 -6 11
-7 -2 -14 -14 -14 -27 -1 -12 1 -17 5 -12 8 13 22 13 42 0 13 -7 13 -6 2 7 -9
11 -10 18 -2 23 13 8 13 25 0 25 -5 0 -10 -6 -10 -14z"/>
<path d="M5694 3968 c-9 -15 4 -22 19 -10 8 7 16 11 18 9 2 -1 3 0 1 2 -6 10
-32 9 -38 -1z"/>
<path d="M8537 3973 c-4 -3 -7 -11 -7 -17 0 -6 5 -5 12 2 6 6 9 14 7 17 -3 3
-9 2 -12 -2z"/>
<path d="M5426 3955 c-18 -14 -18 -14 1 -12 11 0 20 7 20 14 0 7 -1 13 -1 13
-1 0 -9 -7 -20 -15z"/>
<path d="M5826 3962 c-3 -5 1 -9 9 -9 8 0 12 4 9 9 -3 4 -7 8 -9 8 -2 0 -6 -4
-9 -8z"/>
<path d="M5315 3949 c-4 -5 -4 -13 -1 -16 3 -4 6 0 6 8 0 11 2 11 10 -1 6 -9
10 -10 10 -3 0 17 -17 25 -25 12z"/>
<path d="M5579 3948 c-6 -21 -5 -38 1 -38 5 0 8 9 7 20 -1 17 -5 26 -8 18z"/>
<path d="M5291 3924 c0 -11 3 -14 6 -6 3 7 2 16 -1 19 -3 4 -6 -2 -5 -13z"/>
<path d="M5716 3913 c5 -5 12 -12 16 -18 4 -6 8 -2 8 8 0 9 -7 17 -17 17 -9 0
-12 -3 -7 -7z"/>
<path d="M7835 3883 c3 -3 0 -11 -5 -18 -7 -8 -5 -12 4 -12 14 0 16 22 3 32
-4 3 -5 2 -2 -2z"/>
<path d="M5750 3866 c0 -2 11 -26 24 -53 14 -27 27 -61 30 -76 2 -14 7 -31 11
-37 9 -15 25 -12 25 6 0 8 4 13 8 10 5 -3 9 8 10 24 0 17 -6 31 -14 34 -9 3
-13 10 -10 15 5 8 -32 49 -40 44 -11 -8 -24 -1 -24 11 0 8 -4 18 -10 21 -5 3
-10 4 -10 1z"/>
<path d="M7748 3853 c6 -2 10 -8 8 -12 -3 -4 4 -8 15 -8 10 -1 19 3 19 8 0 6
-4 8 -9 4 -5 -3 -12 -1 -16 5 -3 5 -12 10 -18 9 -9 0 -8 -2 1 -6z"/>
<path d="M5337 3830 c-11 -39 -8 -58 8 -56 22 3 29 14 18 28 -6 7 -13 22 -15
33 -3 18 -5 17 -11 -5z"/>
<path d="M7535 3841 c-3 -5 -2 -12 3 -15 5 -3 9 1 9 9 0 17 -3 19 -12 6z"/>
<path d="M7687 3839 c7 -7 15 -10 18 -7 3 3 -2 9 -12 12 -14 6 -15 5 -6 -5z"/>
<path d="M7590 3820 c0 -5 5 -10 10 -10 6 0 10 5 10 10 0 6 -4 10 -10 10 -5 0
-10 -4 -10 -10z"/>
<path d="M7714 3815 c-5 -11 -10 -13 -19 -5 -12 10 -45 4 -45 -9 1 -32 48 -36
62 -6 7 15 16 21 26 18 10 -4 13 -2 8 5 -10 17 -26 15 -32 -3z m-17 -22 c3 -7
-4 -9 -16 -6 -12 3 -18 9 -15 15 7 11 26 6 31 -9z"/>
<path d="M7790 3809 c0 -5 5 -7 10 -4 6 3 10 8 10 11 0 2 -4 4 -10 4 -5 0 -10
-5 -10 -11z"/>
<path d="M7506 3801 c8 -9 44 -11 44 -3 0 4 -11 8 -25 8 -13 0 -22 -2 -19 -5z"/>
<path d="M7569 3801 c11 -7 10 -11 -7 -20 -11 -6 -27 -8 -35 -5 -8 3 -21 -2
-30 -10 -8 -8 -18 -12 -22 -8 -4 4 -6 3 -5 -3 6 -28 -1 -47 -15 -41 -13 4 -14
2 -5 -14 6 -11 13 -20 16 -20 3 0 3 4 -1 9 -3 6 2 14 12 19 19 10 46 5 39 -7
-3 -4 1 -8 8 -8 18 0 9 24 -11 31 -8 3 -19 3 -25 0 -6 -4 -9 -1 -6 6 7 22 26
22 47 1 15 -15 21 -17 21 -7 0 8 -5 16 -12 18 -8 3 -9 6 -1 11 14 9 65 -32 57
-45 -4 -7 -2 -8 4 -4 9 5 8 12 -1 26 -6 11 -14 20 -18 20 -3 0 -6 7 -6 15 0
10 6 14 14 10 8 -3 17 -5 19 -5 3 0 2 -4 -1 -10 -3 -5 -1 -10 5 -10 7 0 9 8 5
19 -4 13 0 23 12 30 10 6 13 11 7 11 -6 0 -17 -7 -25 -16 -11 -14 -13 -14 -21
0 -5 9 -14 16 -21 16 -8 0 -7 -3 2 -9z m-39 -41 c0 -5 -4 -10 -10 -10 -5 0
-10 5 -10 10 0 6 5 10 10 10 6 0 10 -4 10 -10z"/>
<path d="M8840 3790 c0 -11 4 -20 8 -20 4 0 8 9 8 20 0 11 -4 20 -8 20 -4 0
-8 -9 -8 -20z"/>
<path d="M5160 3792 c0 -4 7 -18 16 -30 12 -17 13 -29 6 -51 -8 -23 -6 -30 9
-39 20 -13 26 -57 9 -67 -6 -3 -7 -17 -4 -31 3 -13 1 -31 -5 -38 -7 -8 -9 -25
-6 -38 3 -12 -1 -54 -9 -92 -12 -59 -12 -71 0 -83 17 -17 25 -15 44 10 16 24
21 55 9 63 -5 3 -6 19 -3 37 4 26 3 28 -6 12 l-10 -20 3 20 c2 14 9 19 22 17
11 -2 17 -1 13 4 -4 4 -2 14 5 22 10 13 9 14 -2 7 -11 -6 -13 -2 -7 19 5 21 4
26 -6 20 -10 -6 -10 -5 -2 7 13 16 15 51 2 43 -10 -6 -11 10 -1 20 10 9 10 76
1 70 -5 -3 -8 11 -8 30 0 20 -3 36 -7 36 -5 0 -17 14 -28 30 -19 29 -35 39
-35 22z m75 -232 c3 -5 1 -10 -4 -10 -6 0 -11 5 -11 10 0 6 2 10 4 10 3 0 8
-4 11 -10z"/>
<path d="M7480 3791 c0 -8 -7 -11 -17 -6 -15 5 -16 4 -5 -6 9 -10 15 -10 24
-1 6 6 9 15 5 19 -4 3 -7 1 -7 -6z"/>
<path d="M7758 3793 c13 -3 19 -9 16 -15 -4 -7 -2 -8 5 -4 17 11 3 26 -22 25
-22 -2 -22 -2 1 -6z"/>
<path d="M8940 3785 c0 -9 6 -12 15 -9 8 4 12 10 9 15 -8 14 -24 10 -24 -6z"/>
<path d="M7633 3773 c0 -12 4 -20 8 -17 4 2 10 -2 12 -8 3 -7 6 -8 6 -2 1 5
-5 19 -13 30 -14 19 -15 18 -13 -3z"/>
<path d="M7713 3755 c0 -8 4 -12 9 -9 4 3 8 9 8 15 0 5 -4 9 -8 9 -5 0 -9 -7
-9 -15z"/>
<path d="M5298 3728 c-6 -35 2 -58 18 -51 19 7 19 73 0 73 -7 0 -15 -10 -18
-22z"/>
<path d="M8248 3733 c7 -3 16 -2 19 1 4 3 -2 6 -13 5 -11 0 -14 -3 -6 -6z"/>
<path d="M8834 3714 c-4 -11 -8 -21 -10 -24 -1 -3 1 -12 6 -20 7 -11 11 -11
24 3 20 19 20 31 1 47 -12 10 -16 9 -21 -6z"/>
<path d="M6480 3700 c-12 -7 -10 -9 7 -7 12 0 19 5 17 9 -6 10 -6 10 -24 -2z"/>
<path d="M5870 3683 c0 -9 11 -26 25 -39 20 -19 27 -21 31 -9 10 26 -1 49 -28
56 -22 6 -28 4 -28 -8z"/>
<path d="M7355 3691 c-3 -5 -2 -12 3 -15 5 -3 9 1 9 9 0 17 -3 19 -12 6z"/>
<path d="M7493 3682 c2 -12 6 -24 10 -28 3 -4 4 4 2 16 -6 30 -16 40 -12 12z"/>
<path d="M8231 3663 c-9 -7 -25 -13 -36 -13 -11 0 -33 -7 -49 -15 -28 -15 -55
-23 -85 -24 -8 -1 -3 -10 13 -22 18 -14 34 -19 51 -15 14 4 28 7 32 8 5 0 13
7 18 14 6 6 38 22 73 34 48 18 60 26 51 36 -13 15 -45 14 -68 -3z"/>
<path d="M7194 3646 c1 -8 5 -18 8 -22 4 -3 5 1 4 10 -1 8 -5 18 -8 22 -4 3
-5 -1 -4 -10z"/>
<path d="M7247 3647 c-3 -8 1 -14 8 -14 7 0 11 6 8 14 -3 7 -6 13 -8 13 -2 0
-5 -6 -8 -13z"/>
<path d="M7370 3651 c0 -7 -4 -10 -9 -7 -11 7 -9 -21 2 -29 4 -3 5 -2 2 2 -3
3 0 12 7 20 6 7 8 16 4 20 -3 3 -6 1 -6 -6z"/>
<path d="M5330 3618 c0 -18 4 -28 8 -23 20 27 40 35 66 25 23 -8 26 -7 26 10
0 17 -7 20 -50 20 -50 0 -50 0 -50 -32z"/>
<path d="M6495 3641 c-3 -5 -1 -12 5 -16 5 -3 10 1 10 9 0 18 -6 21 -15 7z"/>
<path d="M7030 3641 c0 -6 4 -13 10 -16 6 -3 7 1 4 9 -7 18 -14 21 -14 7z"/>
<path d="M6033 3625 c0 -8 4 -12 9 -9 5 3 6 10 3 15 -9 13 -12 11 -12 -6z"/>
<path d="M5775 3611 c-3 -5 -2 -12 3 -15 5 -3 9 1 9 9 0 17 -3 19 -12 6z"/>
<path d="M7076 3607 c3 -10 9 -15 12 -12 3 3 0 11 -7 18 -10 9 -11 8 -5 -6z"/>
<path d="M7136 3603 c-4 -9 -4 -14 0 -10 4 4 17 -1 28 -10 l21 -18 -20 25
c-11 14 -20 26 -21 28 -1 2 -5 -5 -8 -15z"/>
<path d="M7177 3609 c7 -7 15 -10 18 -7 3 3 -2 9 -12 12 -14 6 -15 5 -6 -5z"/>
<path d="M7235 3610 c-3 -6 1 -7 9 -4 18 7 21 14 7 14 -6 0 -13 -4 -16 -10z"/>
<path d="M5937 3595 c-14 -10 -15 -14 -5 -18 7 -3 -3 -6 -22 -6 -28 -1 -36 -5
-36 -20 0 -12 4 -17 11 -12 17 14 44 9 50 -8 3 -9 0 -32 -5 -51 -6 -19 -10
-54 -10 -77 0 -29 -4 -42 -12 -40 -8 1 -13 -11 -15 -32 -1 -26 6 -41 29 -65
17 -17 31 -42 32 -56 1 -23 4 -25 46 -22 25 1 84 3 133 3 78 0 87 2 87 19 0
24 -17 35 -33 22 -10 -8 -86 -10 -169 -3 -9 0 -18 11 -20 24 -2 12 -8 22 -15
22 -29 0 -20 13 14 21 53 11 97 11 105 -1 4 -5 22 -2 45 9 21 10 52 20 68 23
17 3 33 10 36 15 8 12 35 5 107 -29 29 -14 62 -23 73 -20 13 4 19 0 19 -12 0
-19 38 -41 71 -41 11 0 33 -7 49 -15 16 -8 39 -14 52 -14 13 1 34 -2 48 -6 14
-3 70 -8 125 -10 205 -7 304 -22 291 -44 -9 -14 4 -41 19 -41 20 0 28 19 15
35 -7 8 -9 26 -5 44 l6 30 -58 -1 c-87 -1 -187 7 -201 16 -7 4 -21 4 -32 1
-12 -4 -20 -2 -20 5 0 7 -11 5 -30 -5 -36 -18 -40 -19 -40 -2 0 8 -31 20 -82
32 -46 11 -90 21 -98 23 -8 3 -34 6 -57 7 -34 2 -49 10 -77 40 -20 21 -36 34
-36 29 0 -4 -7 1 -15 12 -8 10 -15 15 -15 10 0 -4 -11 -1 -25 8 -24 16 -30 12
-26 -16 2 -13 -41 -20 -53 -8 -8 9 -8 14 0 17 18 6 -6 50 -34 63 -31 14 -37
13 -22 -5 6 -8 17 -13 23 -12 8 1 12 -13 12 -38 0 -36 -3 -40 -25 -40 -19 0
-25 5 -25 22 0 30 -15 30 -29 1 -6 -13 -18 -23 -26 -24 -8 -1 -18 -2 -22 -3
-5 -2 -22 -3 -40 -4 -23 0 -33 5 -39 21 -9 23 -6 25 41 26 16 1 26 8 28 20 3
15 0 18 -17 13 -12 -3 -21 -1 -21 5 0 5 -5 6 -11 3 -13 -9 -40 27 -30 40 5 5
10 22 13 37 4 20 0 28 -14 31 -10 3 -18 1 -18 -4 0 -5 -10 -8 -22 -8 -17 1
-19 2 -5 6 25 7 21 33 -5 33 -15 0 -19 3 -11 8 7 4 9 13 5 19 -5 8 -12 8 -25
-2z m63 -169 c0 -24 -16 -43 -26 -33 -3 2 -7 16 -10 31 -3 21 -1 26 16 26 15
0 20 -7 20 -24z m0 -81 c0 -18 -5 -25 -19 -25 -13 0 -18 7 -18 25 0 18 5 25
18 25 14 0 19 -7 19 -25z"/>
<path d="M6069 3583 c-13 -16 -12 -17 4 -4 16 13 21 21 13 21 -2 0 -10 -8 -17
-17z"/>
<path d="M8793 3588 c-10 -12 -10 -44 -1 -54 6 -6 58 20 58 29 0 4 -7 7 -15 7
-7 0 -18 7 -23 16 -7 12 -10 13 -19 2z"/>
<path d="M5294 3571 c4 -5 0 -12 -6 -14 -10 -4 -10 -6 0 -6 6 -1 12 -8 12 -16
0 -9 6 -12 17 -8 12 5 14 3 8 -8 -7 -12 -6 -12 9 1 16 13 20 12 31 -3 7 -9 20
-17 29 -17 13 0 15 4 6 19 -8 16 -6 22 7 30 11 6 13 11 5 11 -8 0 -10 5 -5 13
4 6 -5 4 -20 -6 -25 -16 -29 -16 -43 -2 -16 16 -59 21 -50 6z"/>
<path d="M5795 3571 c-3 -5 -2 -12 3 -15 5 -3 9 1 9 9 0 17 -3 19 -12 6z"/>
<path d="M5495 3540 c-3 -5 -1 -10 4 -10 6 0 11 5 11 10 0 6 -2 10 -4 10 -3 0
-8 -4 -11 -10z"/>
<path d="M7090 3539 c0 -5 5 -7 10 -4 6 3 10 8 10 11 0 2 -4 4 -10 4 -5 0 -10
-5 -10 -11z"/>
<path d="M5270 3521 c0 -6 4 -13 10 -16 6 -3 7 1 4 9 -7 18 -14 21 -14 7z"/>
<path d="M6117 3476 c10 -13 24 -21 30 -19 20 8 15 19 -12 31 -36 17 -38 15
-18 -12z"/>
<path d="M5315 3460 c-3 -5 -1 -10 4 -10 6 0 11 5 11 10 0 6 -2 10 -4 10 -3 0
-8 -4 -11 -10z"/>
<path d="M8757 3423 c-14 -24 -16 -70 -4 -87 20 -28 32 -14 30 36 -2 58 -2 58
-12 58 -6 0 -12 -3 -14 -7z"/>
<path d="M7188 3387 c-4 -38 0 -57 11 -57 4 0 6 15 4 33 -2 17 0 25 4 17 7
-18 24 -30 33 -25 4 3 6 17 6 32 -2 22 -7 29 -28 31 -23 3 -26 -1 -30 -31z"/>
<path d="M5430 3350 c0 -27 5 -50 10 -50 6 0 10 23 10 50 0 28 -4 50 -10 50
-5 0 -10 -22 -10 -50z"/>
<path d="M5383 3352 c-1 -22 0 -24 9 -8 6 10 6 22 2 26 -5 5 -10 -3 -11 -18z"/>
<path d="M7445 3350 c-7 -11 35 -31 48 -23 5 3 0 11 -10 19 -22 16 -30 17 -38
4z"/>
<path d="M6487 3329 c7 -7 15 -10 18 -7 3 3 -2 9 -12 12 -14 6 -15 5 -6 -5z"/>
<path d="M5385 3311 c-6 -10 24 -82 39 -92 5 -4 6 -14 3 -22 -3 -9 3 -23 15
-34 20 -17 21 -17 15 0 -4 11 -3 16 4 12 5 -4 9 -14 8 -23 -3 -36 1 -63 10
-57 17 10 -3 95 -22 95 -12 0 -28 31 -42 78 -3 12 -11 22 -17 22 -5 0 -8 7 -4
15 6 17 0 20 -9 6z"/>
<path d="M7495 3310 c-3 -5 -1 -10 4 -10 6 0 11 5 11 10 0 6 -2 10 -4 10 -3 0
-8 -4 -11 -10z"/>
<path d="M7843 3297 c-35 -13 -33 -23 6 -50 23 -15 25 -15 43 9 16 20 18 28 8
39 -14 17 -15 17 -57 2z"/>
<path d="M5179 3299 c0 -2 -3 -13 -6 -24 -3 -11 -6 -62 -7 -114 -1 -73 -4 -95
-16 -100 -12 -5 -15 -34 -17 -166 -2 -158 4 -190 32 -179 20 8 25 42 10 71 -8
15 -11 31 -8 36 3 5 6 32 7 61 1 28 7 60 13 71 11 20 24 133 23 194 -1 19 5
38 12 42 10 7 8 9 -5 9 -14 0 -16 6 -11 38 4 28 2 41 -10 51 -9 7 -16 12 -17
10z"/>
<path d="M5587 3294 c-8 -8 1 -24 14 -24 5 0 9 7 9 15 0 15 -12 20 -23 9z"/>
<path d="M7749 3262 c-5 -13 -9 -28 -9 -33 0 -5 -7 -9 -16 -9 -14 0 -14 -3 -4
-15 7 -9 20 -13 27 -11 21 8 6 -34 -20 -56 -17 -15 -18 -20 -6 -35 8 -10 19
-21 24 -25 6 -4 6 -8 2 -8 -4 0 -3 -10 4 -21 8 -16 8 -20 -1 -14 -8 5 -11 0
-8 -16 5 -33 21 -33 46 1 21 28 21 32 7 54 -11 16 -14 35 -9 63 4 26 2 43 -5
48 -8 4 -9 11 -2 18 5 7 12 28 16 47 6 32 4 36 -15 36 -14 0 -25 -9 -31 -24z"/>
<path d="M8678 3244 c-3 -5 -6 -23 -6 -40 0 -26 3 -31 22 -31 20 0 22 4 21 34
-3 37 -15 58 -16 27 0 -19 -1 -19 -8 0 -4 11 -10 15 -13 10z"/>
<path d="M5557 3213 c-2 -5 -3 -24 -3 -43 1 -19 -2 -41 -7 -47 -6 -9 -5 -13 2
-13 7 0 10 -3 8 -8 -3 -4 10 -23 29 -42 19 -19 34 -42 34 -51 0 -10 5 -21 10
-24 7 -5 9 10 6 42 -2 26 -5 50 -6 53 -1 3 -2 8 -1 13 0 4 -5 7 -11 7 -10 0
-10 2 0 9 10 6 5 10 -17 14 -29 6 -46 37 -19 37 6 0 8 3 4 7 -3 4 6 12 21 19
25 11 26 12 6 13 -12 1 -25 6 -28 11 -7 12 -22 13 -28 3z"/>
<path d="M7166 3188 c7 -11 34 -10 34 1 0 6 -9 9 -19 8 -11 0 -17 -5 -15 -9z"/>
<path d="M7959 3189 c-2 -13 -1 -47 0 -61 1 -8 6 -6 12 5 5 9 17 17 24 17 8 0
15 7 15 15 0 8 1 18 3 22 1 4 -10 9 -25 10 -16 1 -28 -2 -29 -8z"/>
<path d="M6033 3138 c1 -8 -7 -12 -20 -11 -20 2 -21 0 -13 -21 8 -23 22 -96
23 -123 1 -31 12 2 12 35 0 21 5 39 10 42 6 3 13 -41 19 -115 6 -83 13 -122
22 -128 10 -6 14 -28 13 -70 -2 -110 0 -133 11 -117 5 8 11 12 14 10 8 -9 10
-65 2 -87 -16 -49 -14 -59 15 -79 34 -22 34 -46 -1 -54 l-24 -6 22 -16 23 -15
-41 -17 c-22 -9 -51 -16 -65 -16 -17 0 -25 -6 -27 -22 -2 -15 -11 -24 -27 -26
-29 -4 -52 15 -33 27 21 13 -5 19 -55 13 -46 -4 -52 -16 -28 -48 20 -26 19
-42 -4 -49 -12 -4 -18 -12 -14 -21 6 -15 -8 -18 -44 -8 -14 4 -23 14 -23 25 0
11 -7 19 -15 19 -10 0 -15 -10 -15 -30 0 -20 -5 -30 -15 -30 -8 0 -15 -7 -15
-15 0 -8 5 -15 11 -15 5 0 8 -4 5 -9 -9 -14 14 -18 59 -10 22 4 45 4 50 0 6
-4 16 -6 23 -5 6 1 25 2 41 3 26 1 30 6 36 40 4 22 13 42 21 45 8 3 14 10 14
15 0 6 10 21 23 35 20 21 29 24 68 19 24 -3 55 -6 69 -8 39 -3 42 -4 35 -15
-3 -5 -19 -10 -36 -10 -24 0 -29 -4 -29 -22 1 -21 1 -22 11 -5 8 13 18 17 35
13 17 -5 26 -1 34 14 6 11 9 20 7 20 -3 0 -1 18 3 40 4 22 4 40 0 40 -4 0 -6
36 -5 81 1 77 -8 106 -25 78 -5 -7 -6 -17 -4 -21 11 -17 -14 -7 -31 12 -18 20
-18 21 3 27 18 4 22 13 22 44 0 21 -4 40 -9 43 -11 7 -31 90 -38 156 -3 25
-11 50 -19 56 -19 15 -18 61 2 72 14 8 14 10 -1 25 -9 10 -15 30 -14 49 5 61
0 88 -16 88 -18 0 -20 16 -2 24 10 5 10 7 0 12 -7 3 -13 12 -13 20 0 8 -9 14
-20 14 -11 0 -19 -6 -17 -12z"/>
<path d="M7626 3131 c-22 -25 -18 -67 7 -63 9 2 17 -2 17 -8 0 -5 -4 -10 -10
-10 -5 0 -10 -11 -10 -24 0 -14 -4 -27 -10 -31 -9 -5 -8 -16 7 -52 4 -10 8
-31 9 -48 1 -16 2 -36 3 -44 1 -11 4 -11 16 -1 12 10 15 9 15 -4 0 -10 4 -14
10 -11 12 8 9 55 -4 55 -5 0 -7 2 -4 5 3 3 12 3 21 -1 12 -4 16 -15 12 -42 -2
-21 -1 -29 1 -19 3 9 9 15 13 13 4 -3 8 1 8 9 0 8 -5 11 -10 8 -6 -3 -7 -1 -3
6 14 21 27 0 20 -32 -8 -40 -8 -146 0 -155 4 -3 9 4 13 16 3 12 9 22 13 22 14
0 31 81 28 142 -2 63 -17 104 -34 90 -4 -4 -2 1 6 11 7 10 9 17 4 15 -14 -4
-55 28 -46 37 4 5 1 5 -6 1 -7 -4 -20 -2 -29 6 -15 12 -15 11 -3 -9 8 -12 18
-20 22 -17 4 3 5 -2 1 -12 -5 -15 -7 -15 -15 0 -5 9 -13 14 -17 12 -4 -3 -7 5
-6 17 1 17 8 22 28 21 15 -1 24 3 21 8 -3 4 -9 6 -14 3 -13 -8 -30 20 -35 55
-5 45 -18 54 -39 31z m110 -153 c4 -6 3 -8 -4 -4 -5 3 -13 0 -15 -6 -3 -8 -6
-6 -6 5 -1 19 14 23 25 5z m29 -138 c3 -5 1 -10 -4 -10 -6 0 -11 5 -11 10 0 6
2 10 4 10 3 0 8 -4 11 -10z"/>
<path d="M5359 3113 c-13 -16 -12 -17 4 -4 9 7 17 15 17 17 0 8 -8 3 -21 -13z"/>
<path d="M7153 3079 c-8 -8 -8 -20 -3 -35 5 -13 6 -24 2 -25 -4 0 3 -4 16 -9
18 -8 21 -15 16 -34 -4 -16 0 -33 11 -48 11 -14 15 -16 12 -6 -4 12 -2 15 8
11 8 -3 12 -10 8 -17 -4 -6 2 -4 13 4 29 22 30 24 11 17 -16 -6 -16 -5 -1 18
9 14 22 25 29 25 9 0 12 9 9 28 -12 66 -28 81 -43 40 l-8 -23 -8 25 c-12 39
-48 53 -72 29z m87 -83 c0 -3 -4 -8 -10 -11 -5 -3 -10 -1 -10 4 0 6 5 11 10
11 6 0 10 -2 10 -4z"/>
<path d="M7968 3074 c-4 -3 -14 -7 -24 -8 -24 -4 -29 -23 -7 -29 17 -4 17 -5
1 -6 -14 -1 -18 -10 -18 -37 0 -21 -6 -42 -15 -48 -8 -6 -16 -29 -18 -51 -2
-38 -1 -40 31 -43 21 -2 32 1 33 10 1 16 7 76 14 142 3 27 10 55 16 62 11 13
-1 20 -13 8z"/>
<path d="M8670 3054 c0 -8 5 -12 10 -9 6 3 10 10 10 16 0 5 -4 9 -10 9 -5 0
-10 -7 -10 -16z"/>
<path d="M5551 2984 c0 -11 3 -14 6 -6 3 7 2 16 -1 19 -3 4 -6 -2 -5 -13z"/>
<path d="M7155 2960 c-3 -5 -1 -10 4 -10 6 0 11 5 11 10 0 6 -2 10 -4 10 -3 0
-8 -4 -11 -10z"/>
<path d="M7263 2960 c2 -7 6 -11 11 -10 5 1 12 -4 17 -12 6 -9 8 -6 6 9 -1 16
-5 19 -13 12 -8 -7 -14 -6 -17 1 -4 7 -5 7 -4 0z"/>
<path d="M5550 2875 c-5 -14 -14 -25 -20 -25 -5 0 -10 -4 -10 -10 0 -5 6 -10
14 -10 16 0 29 -27 20 -41 -3 -5 -12 -9 -20 -9 -8 0 -14 -9 -14 -20 0 -11 7
-20 15 -20 13 0 17 -7 17 -30 1 -3 -2 -17 -6 -32 -4 -18 -1 -32 11 -44 16 -15
17 -15 23 1 3 9 5 68 5 130 -1 63 1 114 4 113 18 -2 31 3 31 12 0 6 -14 10
-30 10 -23 0 -33 -6 -40 -25z"/>
<path d="M7116 2882 c-3 -5 1 -9 9 -9 8 0 12 4 9 9 -3 4 -7 8 -9 8 -2 0 -6 -4
-9 -8z"/>
<path d="M8537 2867 c-3 -9 -15 -17 -26 -17 -11 0 -23 -4 -26 -10 -4 -6 12
-10 42 -10 35 0 44 3 33 10 -13 8 -12 10 3 10 10 0 15 5 12 10 -4 6 -10 8 -15
5 -4 -3 -10 0 -12 7 -3 8 -7 6 -11 -5z"/>
<path d="M7150 2860 c0 -5 5 -10 11 -10 5 0 7 5 4 10 -3 6 -8 10 -11 10 -2 0
-4 -4 -4 -10z"/>
<path d="M8248 2843 c-25 -27 -24 -73 1 -73 27 0 30 8 22 54 -6 37 -6 38 -23
19z"/>
<path d="M7384 2821 c0 -15 3 -17 13 -9 7 6 10 14 7 19 -9 15 -20 10 -20 -10z"/>
<path d="M7895 2828 c-3 -8 -7 -26 -9 -39 -5 -35 -17 -69 -25 -69 -4 0 -7 -9
-8 -20 -1 -11 -11 -30 -23 -42 -13 -14 -20 -32 -17 -46 3 -15 -5 -33 -24 -53
-38 -40 -37 -59 1 -59 21 0 28 -4 24 -14 -3 -8 3 -20 13 -27 11 -8 23 -23 26
-33 4 -10 10 -16 14 -12 3 3 14 -1 23 -9 14 -13 20 -11 49 15 18 17 36 30 42
30 5 0 8 5 7 12 -2 7 3 12 10 13 7 0 16 5 20 11 4 6 16 14 26 17 10 4 16 10
12 14 -3 3 4 11 17 17 13 7 23 23 25 39 2 15 8 27 13 27 6 0 17 7 25 15 9 8
26 15 40 15 13 0 24 5 24 10 0 6 -13 10 -29 10 -17 0 -32 4 -35 9 -6 9 -96
-17 -94 -28 1 -3 -2 -14 -7 -24 -4 -11 -3 -23 3 -29 17 -17 -17 -68 -45 -68
-13 0 -23 4 -23 9 0 6 -13 6 -31 -1 -24 -8 -37 -8 -50 1 -10 6 -33 11 -49 11
-18 0 -29 4 -25 10 3 6 14 10 24 10 13 0 20 9 23 29 2 17 1 28 -4 25 -4 -3 -8
2 -8 10 0 9 6 16 13 16 20 0 57 43 57 66 0 11 7 29 15 40 16 21 21 94 6 94 -5
0 -16 3 -25 6 -9 4 -18 0 -21 -8z m192 -220 c-3 -8 -6 -5 -6 6 -1 11 2 17 5
13 3 -3 4 -12 1 -19z m-123 -123 c-4 -8 -8 -15 -10 -15 -2 0 -4 7 -4 15 0 8 4
15 10 15 5 0 7 -7 4 -15z"/>
<path d="M7636 2770 c0 -43 6 -65 19 -80 24 -27 29 -20 28 40 -1 31 3 50 10
50 8 0 8 3 0 11 -6 6 -9 17 -7 23 3 7 -7 13 -23 14 -28 2 -28 2 -27 -58z"/>
<path d="M5623 2800 c-1 -11 2 -18 8 -15 11 7 12 35 1 35 -4 0 -8 -9 -9 -20z"/>
<path d="M8280 2771 c-6 -13 -9 -30 -6 -38 7 -16 13 -15 16 2 1 6 6 15 10 20
5 6 5 17 1 24 -7 11 -11 9 -21 -8z"/>
<path d="M5344 2738 c-3 -4 6 -8 20 -8 14 0 26 4 26 9 0 11 -39 10 -46 -1z"/>
<path d="M5200 2730 c0 -15 38 -32 45 -20 4 6 11 8 16 5 5 -4 9 1 9 9 0 12
-10 16 -35 16 -19 0 -35 -4 -35 -10z"/>
<path d="M5286 2731 c-3 -5 1 -14 9 -21 11 -9 15 -9 15 -1 0 7 4 10 8 7 5 -3
9 2 9 10 0 10 -4 11 -11 4 -13 -13 -29 -13 -21 0 3 6 4 10 1 10 -3 0 -7 -4
-10 -9z"/>
<path d="M8210 2660 c0 -11 4 -20 9 -20 5 0 7 9 4 20 -3 11 -7 20 -9 20 -2 0
-4 -9 -4 -20z"/>
<path d="M7650 2652 c-17 -8 -18 -54 -2 -60 6 -2 9 -9 6 -16 -3 -7 -1 -23 4
-36 6 -16 5 -35 -4 -56 -7 -17 -11 -34 -8 -37 5 -4 11 -36 18 -89 4 -31 14
-30 21 2 9 41 10 208 2 216 -14 14 27 31 55 23 32 -9 37 5 14 36 -12 16 -16
17 -30 6 -13 -11 -17 -11 -22 3 -6 17 -28 20 -54 8z"/>
<path d="M5651 2634 c0 -11 3 -14 6 -6 3 7 2 16 -1 19 -3 4 -6 -2 -5 -13z"/>
<path d="M8278 2624 c-6 -5 0 -65 7 -73 2 -2 4 15 3 38 0 43 -1 45 -10 35z"/>
<path d="M5543 2603 c-27 -5 -30 -29 -8 -53 16 -18 28 -130 14 -130 -4 0 -5
-12 -2 -27 3 -16 6 -47 7 -70 1 -23 6 -46 11 -50 4 -5 5 -3 1 4 -3 6 -2 14 3
17 4 3 11 24 15 46 4 26 11 40 21 40 8 0 15 5 15 10 0 6 -7 10 -15 10 -18 0
-18 1 -21 105 -3 105 -3 105 -11 104 -5 -1 -18 -4 -30 -6z"/>
<path d="M9260 2589 c0 -5 5 -7 10 -4 6 3 10 8 10 11 0 2 -4 4 -10 4 -5 0 -10
-5 -10 -11z"/>
<path d="M8123 2536 c-34 -16 -30 -51 9 -70 17 -9 34 -12 37 -7 11 16 50 22
71 11 16 -9 20 -8 20 5 0 12 8 16 33 14 62 -4 76 0 74 21 -1 17 -8 20 -49 20
-26 0 -48 3 -48 8 0 11 -122 10 -147 -2z"/>
<path d="M8390 2476 c-32 -14 -29 -53 5 -62 13 -3 31 -16 39 -29 9 -13 25 -26
36 -30 11 -3 20 -15 20 -26 0 -10 9 -24 20 -31 11 -7 20 -17 20 -22 0 -5 16
-24 36 -42 19 -19 33 -38 30 -43 -7 -10 18 -34 26 -25 10 9 -64 144 -79 144
-8 0 -13 8 -11 17 2 11 -6 22 -19 28 -13 5 -23 16 -23 23 0 8 -13 19 -30 25
-19 7 -30 19 -31 32 -1 41 -12 53 -39 41z"/>
<path d="M8497 2457 c-6 -17 3 -31 26 -40 10 -4 15 -11 12 -17 -4 -6 1 -7 11
-3 10 3 15 2 12 -3 -4 -5 9 -10 27 -11 33 -2 34 -2 14 18 -10 10 -30 19 -43
19 -18 0 -26 6 -28 22 -4 25 -23 35 -31 15z"/>
<path d="M7718 2405 c-7 -8 3 -55 12 -55 4 0 5 -11 3 -24 -4 -21 -2 -24 16
-19 12 3 21 1 21 -4 0 -6 11 -8 24 -6 29 6 25 34 -7 48 -12 6 -24 21 -27 35
-6 23 -29 38 -42 25z"/>
<path d="M5624 2336 c-6 -6 -9 -17 -6 -24 2 -6 -3 -12 -12 -12 -9 0 -16 -8
-16 -18 0 -15 6 -17 34 -14 18 2 44 -1 56 -8 22 -12 22 -11 15 32 -4 23 -9 44
-10 46 -8 9 -52 7 -61 -2z"/>
<path d="M8277 2333 c-12 -11 -8 -34 8 -49 8 -9 15 -11 15 -5 0 6 11 6 32 0
18 -5 34 -9 35 -9 2 0 3 8 3 18 0 14 -8 17 -35 17 -28 -1 -35 2 -35 17 0 18
-11 24 -23 11z"/>
<path d="M8613 2329 c-18 -18 5 -56 44 -74 26 -12 33 -22 31 -38 -2 -18 3 -23
26 -25 16 -2 36 -12 45 -22 9 -10 32 -20 51 -21 19 -2 41 -8 49 -13 7 -6 32
-11 54 -12 l41 -1 -29 23 c-15 12 -40 25 -55 28 -15 3 -34 12 -43 20 -8 8 -17
12 -21 9 -3 -4 -6 -1 -6 7 0 9 -3 10 -13 1 -16 -13 -27 -5 -27 21 0 14 -8 18
-35 18 -24 0 -35 5 -35 15 0 8 -4 15 -10 15 -5 0 -10 7 -10 16 0 17 -23 44
-37 44 -5 0 -14 -5 -20 -11z"/>
<path d="M5750 2291 c0 -5 11 -11 23 -13 15 -3 24 0 24 9 0 7 -11 13 -24 13
-12 0 -23 -4 -23 -9z"/>
<path d="M7729 2260 c-5 -70 0 -80 29 -62 8 6 10 19 6 40 -7 36 -33 52 -35 22z"/>
<path d="M8383 2262 c-7 -4 -2 -14 12 -24 19 -15 25 -15 34 -4 7 8 8 16 4 19
-21 11 -41 15 -50 9z"/>
<path d="M8250 2210 c0 -11 5 -20 10 -20 6 0 10 9 10 20 0 11 -4 20 -10 20 -5
0 -10 -9 -10 -20z"/>
<path d="M6262 2170 c0 -19 2 -27 5 -17 2 9 2 25 0 35 -3 9 -5 1 -5 -18z"/>
<path d="M6187 2171 c-2 -10 -1 -25 4 -32 6 -10 9 -4 9 19 0 36 -5 42 -13 13z"/>
<path d="M7720 2148 c-8 -18 -15 -37 -16 -43 -1 -5 -5 -17 -9 -26 -4 -11 4
-25 24 -42 17 -14 31 -30 31 -35 0 -28 61 -51 143 -52 18 0 27 -5 27 -16 0 -8
-4 -13 -9 -9 -5 3 -12 1 -16 -5 -8 -14 37 -23 120 -24 50 -1 79 -6 98 -19 21
-13 32 -15 46 -7 16 8 21 6 26 -9 4 -12 12 -18 20 -15 16 7 48 -20 37 -30 -3
-4 1 -4 11 0 9 3 14 11 10 18 -4 6 1 5 11 -3 12 -10 16 -23 13 -40 -5 -23 -4
-24 8 -8 8 11 24 17 46 16 19 -1 26 -3 17 -6 -10 -2 -18 -9 -18 -14 0 -6 5 -7
11 -4 6 4 16 -1 23 -10 10 -14 28 -18 84 -18 69 0 72 -1 72 -24 0 -20 5 -23
33 -22 28 1 172 -7 264 -15 18 -2 40 -9 50 -17 15 -12 16 -12 10 3 -5 14 -1
18 16 17 61 -2 209 11 226 20 13 8 22 8 26 1 4 -7 14 -5 28 5 24 17 41 20 32
5 -3 -6 1 -7 9 -4 9 3 14 10 11 14 -3 4 5 11 18 15 14 4 17 8 9 12 -10 4 -9 8
5 19 14 11 15 13 3 14 -13 0 -13 1 0 10 12 8 12 10 -5 10 -11 0 -15 4 -10 8
11 8 12 25 1 63 -7 23 -11 26 -34 20 -19 -6 -27 -14 -26 -29 0 -21 -15 -25
-28 -7 -4 5 -10 6 -14 2 -4 -3 -1 -15 7 -24 13 -16 12 -17 -3 -5 -13 10 -17
10 -21 0 -2 -7 -4 1 -3 17 1 17 5 36 9 43 5 7 4 12 -2 12 -6 0 -11 -6 -11 -12
0 -10 -3 -9 -9 1 -7 11 -11 8 -17 -10 -4 -13 -7 -28 -5 -33 1 -5 -4 -4 -12 2
-10 9 -16 9 -25 0 -7 -7 -12 -8 -12 -2 0 5 -5 2 -11 -6 -8 -13 -9 -12 -7 4 2
10 -3 21 -10 23 -8 3 -10 -2 -6 -14 4 -13 3 -14 -4 -5 -10 14 -43 13 -53 -2
-4 -5 -10 1 -14 13 -5 18 -9 20 -21 10 -8 -7 -14 -7 -14 -1 0 18 29 22 38 5 6
-9 12 -12 16 -5 3 5 14 9 24 7 9 -1 11 0 4 2 -7 3 -9 10 -6 16 5 8 2 8 -7 0
-17 -17 -37 -17 -21 -1 7 7 12 17 12 22 0 6 -4 5 -9 -3 -5 -8 -20 -15 -34 -17
-20 -2 -24 2 -21 22 1 13 -2 22 -7 18 -5 -3 -7 -10 -3 -15 7 -13 -15 -41 -27
-33 -5 3 -9 -2 -9 -10 0 -20 5 -20 26 2 15 15 17 15 12 1 -4 -9 -1 -23 5 -30
10 -11 9 -11 -5 0 -9 7 -22 10 -28 6 -19 -12 -23 26 -4 48 10 12 15 19 10 15
-5 -4 -15 0 -23 8 -8 8 -20 11 -26 7 -17 -11 -60 -11 -74 0 -9 6 -15 4 -19 -7
-3 -9 -10 -13 -15 -10 -5 3 -9 1 -9 -4 0 -5 -7 -9 -15 -9 -8 0 -15 6 -15 13 0
7 -4 16 -10 19 -7 4 -7 -3 0 -20 7 -17 7 -24 0 -20 -6 3 -10 1 -10 -4 0 -17
-27 -13 -34 5 -3 8 -2 12 4 9 6 -3 10 -2 10 3 0 6 -7 12 -15 16 -8 3 -15 0
-15 -6 0 -7 -5 -6 -15 2 -12 10 -15 10 -15 -4 0 -9 -5 -16 -11 -16 -6 0 -8 9
-4 20 9 28 -4 25 -14 -2 -6 -17 -4 -25 8 -30 13 -6 12 -7 -4 -5 -11 2 -19 9
-17 16 1 7 -6 23 -17 37 -16 21 -20 22 -25 7 -6 -14 -8 -14 -22 3 -9 10 -13
14 -10 8 3 -7 -3 -14 -14 -17 -22 -6 -28 8 -7 16 6 3 2 4 -10 4 -12 -1 -19 -5
-17 -9 3 -4 -5 -8 -18 -8 -14 0 -33 -6 -43 -14 -11 -8 -25 -11 -33 -8 -8 3
-18 -1 -24 -9 -7 -10 -8 -8 -3 8 3 12 1 24 -5 28 -6 4 -9 1 -8 -7 2 -8 -9 -13
-32 -14 -41 -1 -82 15 -73 29 3 5 9 3 14 -4 8 -12 11 -11 19 1 7 11 10 11 10
2 0 -7 5 -10 12 -6 7 4 8 3 4 -4 -5 -8 1 -11 17 -10 16 1 23 7 20 15 -3 7 0
13 6 13 6 0 11 5 11 10 0 18 -18 10 -25 -10 -4 -11 -11 -18 -16 -14 -6 4 -6
10 0 18 8 9 7 13 -4 13 -8 0 -12 -4 -10 -7 3 -4 -6 -7 -20 -7 -14 0 -23 3 -20
7 2 3 -2 7 -10 7 -8 0 -12 -4 -10 -8 3 -4 -2 -10 -11 -13 -25 -9 -27 -7 -13
11 8 9 9 14 3 10 -7 -4 -15 0 -18 9 -4 9 -9 14 -13 11 -3 -4 -13 -1 -22 6 -14
11 -14 10 -2 -5 7 -10 17 -15 22 -12 5 3 9 1 9 -4 0 -17 -13 -22 -29 -9 -14
11 -14 10 -2 -5 7 -10 17 -15 22 -12 5 3 9 1 9 -4 0 -5 14 -15 30 -22 40 -16
44 -25 14 -28 -13 -1 -24 3 -24 10 0 6 -3 9 -6 5 -4 -3 -36 9 -72 28 -36 19
-73 35 -82 35 -23 0 -111 46 -103 54 3 3 -13 6 -36 6 -26 0 -40 4 -36 10 3 6
1 10 -5 10 -7 0 -9 12 -6 30 3 25 1 30 -15 30 -11 0 -19 6 -18 13 6 48 -30 52
-51 5z m227 -174 c-3 -3 -12 -4 -19 -1 -8 3 -5 6 6 6 11 1 17 -2 13 -5z m574
-57 c-7 -7 -7 -15 1 -24 7 -9 -1 -7 -20 4 -31 18 -41 33 -22 33 6 0 10 -4 10
-10 0 -5 5 -10 10 -10 6 0 9 3 9 8 -3 16 2 23 12 16 8 -4 8 -9 0 -17z m235 -6
c-4 -6 -16 -11 -27 -11 -11 0 -19 -7 -19 -17 0 -15 -2 -16 -10 -3 -13 19 -13
33 0 25 5 -3 17 3 27 13 18 19 41 13 29 -7z m80 -25 c0 -14 -4 -22 -8 -20 -5
3 -6 10 -3 15 4 5 2 9 -3 9 -17 0 -22 -13 -10 -29 11 -13 -5 -3 -42 28 -3 2 2
2 10 -1 9 -3 24 0 35 8 10 8 19 14 20 14 1 0 1 -11 1 -24z m-486 -6 c0 -5 -5
-10 -11 -10 -5 0 -7 5 -4 10 3 6 8 10 11 10 2 0 4 -4 4 -10z m336 -15 c1 -9
-4 -11 -14 -7 -10 4 -12 7 -4 10 7 2 9 9 5 15 -3 7 -2 8 2 4 5 -4 10 -14 11
-22z m438 10 c3 -8 1 -15 -4 -15 -6 0 -10 7 -10 15 0 8 2 15 4 15 2 0 6 -7 10
-15z m111 5 c3 -5 1 -10 -4 -10 -6 0 -11 5 -11 10 0 6 2 10 4 10 3 0 8 -4 11
-10z m-694 -33 c-10 -9 -11 -8 -5 6 3 10 9 15 12 12 3 -3 0 -11 -7 -18z m243
12 c3 -3 -4 -5 -14 -6 -11 -1 -22 2 -24 6 -5 8 30 8 38 0z m469 -14 c-3 -9 -8
-14 -10 -11 -3 3 -2 9 2 15 9 16 15 13 8 -4z m-403 -5 c0 -5 -5 -10 -11 -10
-5 0 -7 5 -4 10 3 6 8 10 11 10 2 0 4 -4 4 -10z m376 -5 c-1 -8 -5 -17 -8 -21
-5 -4 -4 16 1 34 3 9 9 -1 7 -13z m-161 -14 c3 -5 2 -12 -3 -15 -5 -3 -9 1 -9
9 0 17 3 19 12 6z"/>
<path d="M8261 2164 c0 -11 3 -14 6 -6 3 7 2 16 -1 19 -3 4 -6 -2 -5 -13z"/>
<path d="M8385 2157 c-47 -26 -55 -35 -55 -64 0 -16 -6 -23 -20 -23 -11 0 -20
-4 -20 -9 0 -12 27 -8 41 6 6 6 18 9 25 6 9 -3 14 2 14 12 0 22 32 63 46 58
13 -4 27 24 16 31 -4 2 -25 -6 -47 -17z"/>
<path d="M6216 2141 c-3 -5 -6 -20 -6 -32 1 -13 -1 -37 -4 -54 -3 -16 -7 -42
-8 -57 -1 -16 -6 -28 -10 -28 -4 0 -8 -4 -8 -10 0 -5 7 -10 15 -10 16 0 21
-26 6 -32 -10 -3 -14 -30 -11 -68 1 -14 4 -19 7 -12 9 24 33 -8 33 -45 0 -26
-5 -36 -22 -42 -13 -5 -29 -6 -35 -4 -8 3 -13 -3 -13 -17 0 -11 4 -19 9 -16 4
3 13 -6 19 -19 16 -34 41 -31 53 5 6 17 17 30 25 30 16 0 19 17 4 22 -11 4
-12 45 -5 150 3 42 2 79 -3 82 -11 7 -3 66 9 66 5 0 9 7 9 16 0 8 -4 12 -10 9
-6 -3 -10 5 -10 19 0 13 -3 31 -6 40 -7 17 -29 21 -38 7z"/>
<path d="M8255 2120 c3 -5 8 -10 11 -10 2 0 4 5 4 10 0 6 -5 10 -11 10 -5 0
-7 -4 -4 -10z"/>
<path d="M8930 2087 c0 -14 32 -36 53 -37 18 0 21 8 9 26 -9 15 -62 24 -62 11z"/>
<path d="M5740 2071 c-20 -13 -25 -24 -25 -56 0 -52 28 -56 35 -5 4 30 9 35
35 38 44 5 50 17 13 29 -26 7 -38 6 -58 -6z"/>
<path d="M6024 2068 c-7 -10 9 -16 36 -13 14 2 31 4 39 4 8 1 11 4 8 7 -9 9
-78 11 -83 2z"/>
<path d="M5593 2040 c-1 -15 4 -20 23 -20 27 0 33 24 8 34 -25 10 -30 7 -31
-14z"/>
<path d="M5870 2050 c-11 -7 -12 -12 -3 -21 14 -14 46 -4 41 13 -6 16 -20 19
-38 8z"/>
<path d="M5937 2054 c-3 -4 -2 -15 3 -25 7 -11 6 -19 -1 -21 -6 -2 1 -17 15
-33 25 -28 25 -29 46 -10 24 21 28 60 5 51 -9 -3 -25 5 -38 20 -13 13 -26 22
-30 18z"/>
<path d="M9042 2049 c-33 -13 -19 -27 34 -35 38 -5 45 -10 41 -25 -3 -11 -1
-16 4 -13 5 3 12 -2 16 -12 6 -15 7 -15 14 4 5 14 14 20 24 16 27 -11 6 19
-29 42 -43 27 -75 34 -104 23z"/>
<path d="M8050 2020 c0 -5 5 -10 11 -10 5 0 7 5 4 10 -3 6 -8 10 -11 10 -2 0
-4 -4 -4 -10z"/>
<path d="M6068 2013 c6 -2 18 -2 25 0 6 3 1 5 -13 5 -14 0 -19 -2 -12 -5z"/>
<path d="M5585 2000 c-3 -5 -4 -10 -1 -10 2 0 11 -3 20 -6 11 -4 16 -1 16 10
0 18 -25 22 -35 6z"/>
<path d="M6070 1990 c0 -5 6 -9 13 -7 7 1 12 -9 12 -28 1 -24 5 -30 25 -32 19
-2 21 -1 8 5 -12 5 -15 11 -8 22 14 21 12 30 -5 30 -8 0 -15 5 -15 10 0 6 -7
10 -15 10 -8 0 -15 -4 -15 -10z"/>
<path d="M8315 1974 c-19 -15 -19 -16 -1 -29 22 -17 57 0 48 24 -4 12 -7 11
-12 -4 -5 -13 -9 -15 -14 -7 -4 7 -4 17 -1 22 8 14 4 12 -20 -6z m20 -24 c3
-6 -1 -7 -9 -4 -18 7 -21 14 -7 14 6 0 13 -4 16 -10z"/>
<path d="M8395 1979 c-4 -6 -5 -12 -2 -15 2 -3 7 2 10 11 7 17 1 20 -8 4z"/>
<path d="M5565 1970 c-3 -5 -1 -10 4 -10 6 0 11 5 11 10 0 6 -2 10 -4 10 -3 0
-8 -4 -11 -10z"/>
<path d="M6035 1970 c3 -5 8 -10 11 -10 2 0 4 5 4 10 0 6 -5 10 -11 10 -5 0
-7 -4 -4 -10z"/>
<path d="M8530 1960 c0 -5 5 -10 11 -10 5 0 7 5 4 10 -3 6 -8 10 -11 10 -2 0
-4 -4 -4 -10z"/>
<path d="M8596 1962 c-3 -5 1 -9 9 -9 8 0 12 4 9 9 -3 4 -7 8 -9 8 -2 0 -6 -4
-9 -8z"/>
<path d="M8689 1957 c6 -8 7 -18 3 -22 -4 -5 -1 -5 6 -1 10 6 10 11 1 22 -6 8
-14 14 -16 14 -3 0 0 -6 6 -13z"/>
<path d="M5535 1949 c-4 -6 -3 -15 3 -21 6 -6 11 -4 15 6 7 18 -9 31 -18 15z"/>
<path d="M9060 1940 c-8 -5 -18 -6 -24 -3 -5 3 -6 1 -2 -6 4 -6 3 -18 -3 -25
-8 -10 -6 -17 8 -30 13 -12 21 -14 26 -6 3 5 11 8 16 5 5 -4 9 -1 9 5 0 6 -6
10 -12 9 -7 -1 -22 0 -33 1 -15 1 -13 4 9 10 16 5 34 6 39 3 6 -3 7 -1 3 5 -3
5 0 12 6 14 8 3 6 9 -8 16 -12 6 -26 7 -34 2z"/>
<path d="M8996 1932 c-2 -4 -1 -14 4 -22 7 -11 9 -9 7 8 -1 24 -3 26 -11 14z"/>
<path d="M5675 1918 c-3 -7 -6 -24 -7 -38 -2 -19 2 -25 17 -25 16 0 21 8 23
38 2 28 0 37 -13 37 -8 0 -18 -6 -20 -12z"/>
<path d="M8646 1913 c-6 -14 -5 -15 5 -6 7 7 10 15 7 18 -3 3 -9 -2 -12 -12z"/>
<path d="M9184 1905 c-4 -8 -12 -15 -19 -15 -8 0 -16 -4 -19 -8 -2 -4 4 -8 14
-8 10 0 23 11 29 23 6 13 8 23 5 23 -2 0 -7 -7 -10 -15z"/>
<path d="M5875 1901 c-6 -11 9 -23 19 -14 9 9 7 23 -3 23 -6 0 -12 -4 -16 -9z"/>
<path d="M9315 1900 c3 -5 8 -10 11 -10 2 0 4 5 4 10 0 6 -5 10 -11 10 -5 0
-7 -4 -4 -10z"/>
<path d="M5414 1875 l-29 -11 34 -7 c38 -8 56 2 37 19 -9 9 -20 8 -42 -1z"/>
<path d="M5876 1855 c-9 -24 -8 -45 3 -45 12 0 20 35 11 50 -5 8 -9 7 -14 -5z"/>
<path d="M5342 1762 c4 -43 22 -46 24 -3 1 18 -4 32 -13 35 -11 5 -14 -2 -11
-32z"/>
<path d="M5935 1779 c-10 -15 3 -25 16 -12 7 7 7 13 1 17 -6 3 -14 1 -17 -5z"/>
<path d="M6006 1782 c-2 -4 -1 -14 5 -22 7 -12 9 -10 9 8 0 23 -5 28 -14 14z"/>
<path d="M5679 1734 c-6 -8 -22 -14 -36 -14 -13 0 -22 -4 -18 -9 3 -5 2 -12
-3 -15 -15 -9 0 -66 19 -77 18 -9 19 -7 13 16 -13 53 -11 60 26 65 20 3 34 11
33 18 -2 7 9 12 27 12 17 0 30 4 30 9 0 15 -78 10 -91 -5z"/>
<path d="M5855 1740 c3 -5 15 -10 25 -10 10 0 22 5 25 10 4 6 -7 10 -25 10
-18 0 -29 -4 -25 -10z"/>
<path d="M5284 1712 c-6 -10 -15 -32 -19 -50 -6 -29 -4 -32 17 -32 18 0 20 2
8 10 -13 8 -12 11 4 23 15 11 17 19 10 40 -8 25 -10 26 -20 9z"/>
<path d="M5322 1710 c0 -14 2 -19 5 -12 2 6 2 18 0 25 -3 6 -5 1 -5 -13z"/>
<path d="M6007 1717 c-12 -32 -8 -62 13 -80 24 -20 39 -21 63 -3 27 21 20 32
-20 31 -36 0 -38 2 -43 35 -4 27 -7 31 -13 17z"/>
<path d="M9186 1661 c-3 -4 -18 -7 -33 -5 -24 2 -42 -9 -43 -26 0 -3 11 -5 24
-5 16 0 22 4 18 14 -4 10 -1 13 11 8 8 -3 21 1 27 9 7 8 10 14 7 14 -3 0 -8
-4 -11 -9z"/>
<path d="M6115 1650 c3 -5 11 -10 16 -10 6 0 7 5 4 10 -3 6 -11 10 -16 10 -6
0 -7 -4 -4 -10z"/>
<path d="M9090 1650 c0 -7 -7 -9 -16 -6 -8 3 -12 2 -9 -4 8 -13 32 -13 40 -1
3 5 1 12 -5 16 -5 3 -10 1 -10 -5z"/>
<path d="M5250 1600 c0 -11 5 -20 11 -20 6 0 9 -9 6 -20 -4 -17 -2 -18 13 -10
18 10 18 12 2 40 -20 35 -32 38 -32 10z"/>
<path d="M5434 1572 c-6 -4 -13 -15 -17 -25 -4 -10 -15 -17 -24 -15 -10 2 -19
-4 -21 -14 -5 -24 53 -17 78 10 32 34 20 69 -16 44z"/>
<path d="M5998 1558 c-2 -14 -9 -22 -18 -20 -8 2 -12 0 -8 -4 13 -12 61 -14
75 -2 7 6 13 19 13 29 0 30 -57 26 -62 -3z"/>
<path d="M5216 1521 c-3 -5 1 -14 9 -21 11 -9 19 -8 37 4 12 9 20 16 18 17
-47 8 -59 8 -64 0z"/>
<path d="M5495 1520 c-6 -10 0 -12 30 -12 28 0 35 2 35 12 0 6 -13 10 -29 10
-17 0 -33 -4 -36 -10z"/>
<path d="M5940 1520 c0 -5 -11 -12 -25 -16 -14 -3 -25 -10 -25 -16 0 -5 -4 -7
-9 -3 -5 3 -12 1 -16 -5 -3 -5 -18 -10 -32 -10 -27 0 -83 -29 -83 -43 0 -5 7
-6 16 -3 8 3 12 2 9 -4 -3 -6 -14 -10 -24 -10 -10 0 -30 -9 -44 -20 -14 -11
-33 -20 -42 -20 -24 0 -9 -17 19 -22 15 -3 27 0 30 7 2 7 30 16 60 19 49 7 58
11 72 37 18 36 70 62 97 48 13 -7 19 -6 22 6 3 8 7 21 9 29 5 14 -12 36 -26
36 -4 0 -8 -4 -8 -10z"/>
<path d="M5228 1461 c-12 -14 -13 -22 -5 -30 8 -8 8 -11 -1 -11 -7 0 -12 -4
-12 -9 0 -4 14 -7 30 -5 21 3 30 -1 30 -11 0 -8 9 -15 21 -15 11 0 17 5 14 10
-3 6 1 10 9 10 9 0 16 -9 16 -21 0 -11 4 -17 10 -14 6 4 17 1 26 -5 8 -7 40
-14 72 -15 31 -1 64 -4 72 -7 28 -12 87 -18 104 -12 22 9 20 24 -4 24 -11 0
-34 13 -50 29 -28 27 -36 29 -101 27 -63 -2 -70 0 -66 16 6 23 -22 32 -57 18
-35 -13 -36 -13 -36 5 0 13 -29 35 -47 35 -5 0 -16 -9 -25 -19z"/>
<path d="M9376 312 c-3 -4 4 -9 15 -9 23 -2 25 3 4 10 -8 4 -16 3 -19 -1z"/>
</g>
</svg>
